<svg xmlns="http://www.w3.org/2000/svg" viewBox="0 0 865.67 1255.15"><defs><style>.cls-1{fill:#fff;stroke-width:5px;}.cls-1,.cls-2,.cls-4{stroke:#6562cf;}.cls-1,.cls-2,.cls-4,.cls-8{stroke-miterlimit:10;}.cls-2,.cls-4,.cls-8{fill:none;}.cls-2,.cls-4{stroke-linecap:round;}.cls-2{stroke-width:6px;}.cls-3{fill:#dbdaff;}.cls-4{stroke-width:4px;}.cls-5{fill:#3c4564;}.cls-6{fill:#424d76;}.cls-7{fill:#e49647;}.cls-8{stroke:#cb884b;stroke-width:3px;}.cls-9{fill:#d48845;}.cls-10{fill:#ffb000;}</style></defs><g id="Layer_2" data-name="Layer 2"><g id="Слой_1" data-name="Слой 1"><g id="_2" data-name="2"><g id="CHAIR"><path class="cls-1" d="M445.71,803.15H733.82A39.89,39.89,0,0,1,773.71,843v.24a0,0,0,0,1,0,0H405.82a0,0,0,0,1,0,0V843A39.89,39.89,0,0,1,445.71,803.15Z"/><line class="cls-2" x1="483" y1="845.05" x2="696.53" y2="1252.15"/><line class="cls-2" x1="696.53" y1="845.05" x2="483" y2="1252.15"/></g><g id="MAN"><g id="LEGS"><g id="LEFT"><path class="cls-3" d="M4,1246.78s62.76,0,92.27-.18c24.82-.16,73.7,4.94,74.46-6.94,1.54-23.9-14.4-37.18-12.42-52.26A119.77,119.77,0,0,1,101.6,1175c-6.4,6.25-42.07,39.94-71.37,43.39C-2.09,1222.2,4,1246.78,4,1246.78Z"/><path class="cls-2" d="M3,1248.78s138.76,0,168.27-.18"/><path class="cls-4" d="M81.24,1204.35s-17.92-20.67-24.33-1.42c-5.08,15.25,4.52,18.68,7.18,12.27,1.52-3.68-14-13.71-19.89-6.73-3.3,3.92-2.77,7.63-2.77,7.63"/><path class="cls-5" d="M179,767.23c22.5-65.54,325.64-101.5,325.64-101.5l95.95,2.58c4.79,15.84,13.42,122.12-56.83,160.88-74.55,41.13-243.18-12.26-243.18-12.26s9.88,205.18-134.27,373.76l-94.06-10C112.52,1022.21,157.24,830.47,179,767.23Z"/></g><g id="RIGHT"><path class="cls-3" d="M236,1246.78s62.76,0,92.27-.18c24.82-.16,73.7,4.94,74.46-6.94,1.54-23.9-14.4-37.18-12.42-52.26A119.77,119.77,0,0,1,333.6,1175c-6.4,6.25-42.07,39.94-71.37,43.39C229.91,1222.2,236,1246.78,236,1246.78Z"/><path class="cls-2" d="M235,1248.78s138.76,0,168.27-.18"/><path class="cls-4" d="M313.24,1204.35s-17.92-20.67-24.33-1.42c-5.08,15.25,4.52,18.68,7.18,12.27,1.52-3.68-14-13.71-19.89-6.73-3.3,3.92-2.77,7.63-2.77,7.63"/><path class="cls-6" d="M306.2,766.62C320.13,721.7,543.76,667,543.76,667l190.15,4.29c4.78,15.84,23.11,109.12-47.14,147.88-74.55,41.13-267.57,22.54-267.57,22.54s71.16,126.77-18.62,349l-90.47-10C325.84,1062.88,286.4,830.48,306.2,766.62Z"/></g></g><path id="T-SHIRT" class="cls-3" d="M516.79,635.38S487.18,530,462.84,417c0,0-60.27-20.5-95-59.26,0,0,55.74-98.72,98.64-113.65,36.93-12.85,90.13-25.24,90.13-25.24l119.76-8.9S764,233.82,795.19,258.48c36.25,28.65,54.28,122.59,54.28,122.59s-42.06,3.09-103.53,39.64L731.5,635.38c4.15,27.49,14.1,64.32,14.1,64.32s-120.67,28.37-277.83-31.6C467.77,668.1,522.6,656.61,516.79,635.38Z"/><g id="LEFT_HAND" data-name="LEFT HAND"><path class="cls-7" d="M368,358.46l-39.56,59.86S219.9,275.64,208.39,259.2l-35.71,11.9s84.58,260.22,153.25,260.22C380.53,531.32,461.6,417,461.6,417S389.94,383.35,368,358.46Z"/><g id="ARM"><path class="cls-7" d="M208.39,259.32s-.13-36.54-8.24-48.71-30.78-56-39.18-51.45c-3.87,2.1,10.29,38.6,10.29,38.6s-7.81-3.73-13.47,2.36-6.32,1-14.1,4.4-4.74,9.66-14.21,10.34c-6.82.48-6.31,8.76-2,17,5.75,11.16,37.14,42.4,46.91,39.24S208.39,259.32,208.39,259.32Z"/><path class="cls-8" d="M128.85,229.61c1.07,2.3,8.51,19.2,18.2,15.6S139,216.3,139,216.3s14.43,26.65,23.89,22.6-8.34-29.53-8.34-29.53"/><path class="cls-8" d="M199.43,213.83c-3.22-5.45-6.83-8.07-16.3-5.82s-24,7.29-24,7.29,1.83,12.52,13.52,10.52c7.89-1.35,7.89-1.35,8.11.45s1.26,13.08,5.1,20.29"/></g></g><g id="RIGHT_HAND" data-name="RIGHT HAND"><path class="cls-1" d="M352.6,454.46H511.27c21.85,0,42.46,15,46,33.39l23.07,118.88c3.57,18.44,24.19,33.39,46,33.39H467.72c-21.85,0-42.45-15-46-33.39L398.87,489.1c-3.09-16-18.68-28-37.05-31.35L353,456.5Z"/><path class="cls-7" d="M856.7,565.65C833.3,598.6,667,627.13,630.54,633a26.28,26.28,0,0,1-5.2,1.22c-7.79,1-48.19,3.43-56.23.85-9.47-3.05-27.43-20.18-28.4-22.83s-5.78-24.92-5.78-24.92,12.56-1.85,19.46,11.57c6.21,12.1,19.69,10.79,28,10.07,3.46-.3,10.09-5.45,9-10.69s-7.51-3.45-10.9-5.71l-2.44-12.06,15.42-.17c3.77-.05,24.58,8.13,37.47,19.82,35.42-20.32,115.93-65.45,156.75-79.66l-41.8-99.82s38.2-32.82,103-40C849,380.67,880.7,531.84,856.7,565.65Z"/></g><g id="HEAD"><g id="NECK"><path class="cls-7" d="M640.91,123.64s-8.77,61.82,37.39,87c0,0-56.57,42.84-100.4,45.58s-25-34.91-25-34.91,10.79-21.29,7.38-73.57Z"/><path class="cls-9" d="M560.25,147.75l78.86-23.58c-1.05,3.94-5.62,58.64-69.07,75.4-3.79,1-7.64-.13-11.15-1.63C560.61,186.2,561.69,169.71,560.25,147.75Z"/></g><path id="HEAD-2" data-name="HEAD" class="cls-7" d="M640.4,124s-19,43.32-70.35,49.58c-45.79,5.59-68.3-122.09-.69-134.3,74.3-13.41,65.46,66.13,65.46,66.13s10.9-8,16-1.67S640.4,124,640.4,124Z"/><path id="HAIR" class="cls-10" d="M641.32,118.24l-6.09-12.06C621,101.45,622.73,82,627.89,71.46c-3.37,2-9.79,3.82-20.95,2.87-6.2-.53,5.76-11.09.83-11.92s-15.21,10.28-30.42,11.51,1.15-10.34,2.09-16.43c.82-5.34-9.27,1.69-14.54,5-19.58,12.43-36.12,9.42-37.51,28,0,0-15.7-24.44-15.7-36,0-29.19,52.93-56.65,74.84-54.45C605.74,2,620,18.51,623.21,22.55a15.77,15.77,0,0,1,6.42-5.49c4.91-2.52,9.82-2.77,11-.55s-1.92,6.07-6.83,8.59c-.3.15-.59.3-.89.43,7.41,2.11,17.92,6,25.62,12.77C684.24,60.76,641.32,118.24,641.32,118.24Z"/><path id="EAR" class="cls-7" d="M634.82,106.63s8.35-9.14,16-2.91-12.88,22.74-12.88,22.74Z"/></g></g></g></g></g></svg>