<svg xmlns="http://www.w3.org/2000/svg" viewBox="0 0 947.48 1240.91"><defs><style>.cls-1,.cls-15,.cls-16,.cls-19{fill:#fff;}.cls-1,.cls-14,.cls-4{stroke:#3f4d79;}.cls-1,.cls-14,.cls-17,.cls-18,.cls-4{stroke-linecap:round;}.cls-1,.cls-12,.cls-13,.cls-14,.cls-15,.cls-17,.cls-18,.cls-19,.cls-4{stroke-miterlimit:10;}.cls-1,.cls-12,.cls-14,.cls-17,.cls-19{stroke-width:5px;}.cls-2{fill:#ffb000;}.cls-3{fill:#e2631e;}.cls-12,.cls-13,.cls-14,.cls-17,.cls-18,.cls-4{fill:none;}.cls-18,.cls-4{stroke-width:7px;}.cls-5{fill:#ffc0b7;}.cls-6{fill:#3c4564;}.cls-7{fill:#fe7523;}.cls-8{fill:#ffcfc9;}.cls-9{fill:#3f4d79;}.cls-10{fill:#fab6ad;}.cls-11{fill:#ceeff7;}.cls-12{stroke:#84d7ec;}.cls-13{stroke:#fe7523;stroke-width:3px;}.cls-15{stroke:#ecbe02;stroke-width:6px;}.cls-17,.cls-18{stroke:#3cbfd4;}.cls-19{stroke:#ffb000;}</style></defs><g id="Layer_2" data-name="Layer 2"><g id="Слой_1" data-name="Слой 1"><g id="_2" data-name="2"><g id="CHAIR"><path class="cls-1" d="M440.7,1234.31h0a6.11,6.11,0,0,1-6.11-5.91l27.2-380.52h37.82l-52.8,380.52A6.11,6.11,0,0,1,440.7,1234.31Z"/><path class="cls-1" d="M675.7,1234.31h0a6.11,6.11,0,0,1-6.11-5.91l-52.8-380.52h37.82l27.2,380.52A6.11,6.11,0,0,1,675.7,1234.31Z"/><path class="cls-1" d="M784.7,1234.31h0a6.11,6.11,0,0,1-6.11-5.91l-52.8-380.52h37.82l27.2,380.52A6.11,6.11,0,0,1,784.7,1234.31Z"/><polygon class="cls-1" points="798.68 766.29 787.76 810.09 751.86 810.09 762.78 766.29 798.68 766.29"/><polygon class="cls-1" points="658.55 766.29 647.63 810.09 611.73 810.09 622.65 766.29 658.55 766.29"/><rect class="cls-2" x="394.97" y="807.08" width="420.05" height="44.79" rx="22.4"/><path class="cls-2" d="M947,458.53l-68.05,273a49.79,49.79,0,0,1-48.31,37.74h-248c-13.73,0-23.28-20.75-18.55-40.32l67.79-280.34c3.22-13.32,11.57-22.16,20.92-22.16H922.24C933.18,426.45,950.73,443,947,458.53Z"/></g><g id="CHARACTER"><g id="LEGS"><g id="LEFT_LEG" data-name="LEFT LEG"><g id="FOOT"><path class="cls-3" d="M164.34,1168.44c0,6.92,21.41,28.11,14.2,63.53,0,0-52.82.08-78.73.24-30.8.19-96.31.19-96.31.19s-6.36-28.23,27.38-32.14,76.51-39.57,76.51-39.57Z"/><path class="cls-4" d="M180.81,1235.21c-30.8.19-177.31.19-177.31.19"/><path class="cls-5" d="M108.39,1160.69c3.34-9.31,8.15-39.72,8.15-39.72l54.27,4.76s-9,20.33-7.47,41.71C163.86,1174.65,104.72,1170.9,108.39,1160.69Z"/></g><path id="PANT" class="cls-6" d="M656.08,781.24c-60.34,24.66-343.21,9.09-343.21,9.09s-5.79,221.61-112.16,336.33c0,0-73.37-2.46-93.48-7.65,0,0,55.6-331.66,95.35-396.81,21-34.49,257.44-87.12,308.42-91.55a286.07,286.07,0,0,0,48.13,25.8C605.47,676,653,683,688.74,685.07,694.23,717.11,695.1,765.3,656.08,781.24Z"/></g><g id="RIGHT_LEG" data-name="RIGHT LEG"><g id="FOOT-2" data-name="FOOT"><path class="cls-7" d="M205.34,1168.44c0,6.92,21.41,28.11,14.2,63.53,0,0-52.82.08-78.73.24-30.8.19-96.31.19-96.31.19s-6.36-28.23,27.38-32.14,76.51-39.57,76.51-39.57Z"/><path class="cls-4" d="M221.81,1235.21c-30.8.19-177.31.19-177.31.19"/><path class="cls-8" d="M149.39,1160.69c3.34-9.31,8.15-39.72,8.15-39.72l62.27,6.76s-11.3,10.36-15.47,39.71C203.32,1174.59,145.72,1170.9,149.39,1160.69Z"/></g><path id="PANT-2" data-name="PANT" class="cls-9" d="M699.75,807.31C639.41,832,356.54,816.4,356.54,816.4s5.84,193-127.78,311.68c0,0-66.86-4.81-87-10,0,0,85.64-313.36,104.46-369.81,10.3-30.9,273-90.48,312.88-91.82C624.89,684.21,693,686.6,726.54,685.7,732.53,706,752.26,785.86,699.75,807.31Z"/></g></g><g id="LEFT_HAND" data-name="LEFT HAND"><path class="cls-5" d="M527.25,547c-68.44,13.65-232.86,7.8-301.79-6.05a105.47,105.47,0,0,1-11.76,7.89c-9,5.17-26.33,9.35-30.44,9.12s-29.33-4.1-29.33-4.1-.9-2.85,2.79-6.61,30.74-.77,20.85-9c-4.4-3.68-26.31,4.6-35.84,13.78s-14,1.91-14,1.91,9.12-17,12.39-20.08,25-16.14,39.72-18.13c10.66-1.44,36.3.54,49.87,3.81C280,507.6,376.49,492.38,445.19,492.93c9.13-38,20.22-84.52,23.17-98.28l48.84,32Z"/><path class="cls-10" d="M468.36,394.65l-3.08,13.65s12.65,32.05,53.48,42.63l-1.56-24.3Z"/></g><g id="T-SHIRT"><path class="cls-11" d="M765.82,480.06s-3.65-.23-9.8-.86c-7,51.69-13.16,95.11-13.16,104.64,0,25.61,5,100.61,5,100.61S613,699.58,510.14,630.06c0,0,23.84-32.09,11.47-133.21-8.22-67.27-4.41-70.22-4.41-70.22S492,413.49,456.26,385.18c0,0,18.55-91.7,48.14-109.69s75.51-26.38,106-37.86,76.84-23.4,76.84-23.4c12.37,10.15,71.1,38.86,85.67,56.08C793.67,289.34,822.13,364.81,765.82,480.06Z"/><path class="cls-12" d="M647.25,449.9s12.61-20.71,27.82-96.21"/><path class="cls-12" d="M516.08,424.72c-1.44-18.26.5-52.43,2.86-71.42"/></g><g id="RIGHT_HAND" data-name="RIGHT HAND"><path class="cls-8" d="M756,479.2s-53.45,135.08-77.65,137.32c-78.82,7.29-210.54-67.77-239-68.65l-12.48-.4c-7,4.11-15.9,7.61-23.43,5.4-15.18-4.44-27.34-15.41-37.4-10.7s-21.67,13.75-28.05,13c-13.35-1.61-21.05-8.7-21.05-8.7s8.31-9.06,16.7-17.67c-5.95,2.33-15,8.73-19.63,10.93-7,3.31-10.6-2.61-10.6-2.61s15.61-13.79,21-17.06c5.21-3.15,19.83-6.46,27.21-6.62,8.93-1.2,57.91-7.89,83.15-5.23,28.94-1.07,87,1,189.28,20.23l29.31-75.18S697.87,473.05,756,479.2Z"/><path class="cls-10" d="M756,479.21s-4.83,12.21-12.25,29.35c-24.31-7.18-63.72-22.43-92-51.18l1.61-4.14S697.88,473.05,756,479.21Z"/></g><g id="HEAD"><g id="NECK"><path class="cls-8" d="M633.78,124.14s4,57,53.43,90.09c0,0-26.05,57-86.11,60.94s-14.77-29.79-14.77-29.79S570.66,193.53,568,181.17Z"/><path class="cls-10" d="M633.6,153.74c-3,26.07-26,63.44-54.53,67.27-4.48-15.25-9.64-33.22-11.06-39.84L630.46,127l1.94,3.86S634.24,148.24,633.6,153.74Z"/></g><path id="HEAD-2" data-name="HEAD" class="cls-8" d="M629.08,128.22s.93,17.87-1.47,22.86c-11.05,23-45.7,49.4-72.64,49.4-20.85,0-45.28-63.53-47.48-86.94s.88-60.5,57.4-64.91,60.5,54.31,60.5,54.31Z"/><g id="HAIR"><path class="cls-7" d="M464.21,89.7s-10.51-20.88,7.06-36.21C492,35.38,511,43.77,521.62,32.29s32.81-36,65.8-31.81c29.58,3.76,38.21,24.3,38.21,24.3s18.3-7.71,34.19,13-22.49,107-22.49,107S627,110.4,625.39,103c-3.61-16.57-36.21-12.66-33.56-45.05,0,0-8.83,22.08-42.39,21.66-10-.12-22.92-2.86-35.75-4.76-7.1,12.57-7.29,27.3-6.2,38.74C507.49,113.54,477.48,113.08,464.21,89.7Z"/><path class="cls-13" d="M624.72,24.78s14.82-14.09,30.55-.62"/><path class="cls-13" d="M591.83,56.08s-6.15,29.73-39.66,31.67"/></g><g id="HEADPHONES"><path class="cls-14" d="M634.27,93.54,623.61,13.05a10.59,10.59,0,0,0-11.27-9.18"/><path class="cls-14" d="M643.14,151.92C646,166,670.9,204.51,627.61,278s13,95.38-15.47,145.72-90.19,47.58-87,131.82c2.1,55.43-47.6,62.93-44.73,0"/><path class="cls-14" d="M552.43,480.07c14.86-12.13,29.89-80.82,6.05-119.9s-47.14-91.76-12-158.12"/><rect class="cls-15" x="615.37" y="93.35" width="44.68" height="59.05" rx="11.71" transform="translate(-11.2 96.67) rotate(-8.59)"/></g></g></g><g id="TABLE"><path class="cls-16" d="M20.9,575.65H559c5.72,0,10.36,6.64,10.36,14.84v1.36c0,8.19-4.64,14.83-10.36,14.83H153.9"/><path class="cls-17" d="M26.9,573.65H559c5.72,0,10.36,6.64,10.36,14.84v1.36c0,8.19-4.64,14.83-10.36,14.83H155.9"/><polygon class="cls-16" points="533.71 1240.91 431.76 605.68 466.86 605.68 567.81 1239.91 533.71 1240.91"/><polygon class="cls-11" points="472.79 637.94 434.93 623.81 431.75 605.68 466.87 605.68 472.79 637.94"/><polyline class="cls-18" points="531.71 1236.91 431.76 605.68 466.86 605.68 565.81 1235.91"/></g><g id="LAPTOP"><path class="cls-19" d="M405.1,547.5H102.27a19.59,19.59,0,0,1-18.4-12.84L14.08,344.47a15.59,15.59,0,0,1,14.64-21H335.55A22.08,22.08,0,0,1,356.28,338L423.5,521.16A19.6,19.6,0,0,1,405.1,547.5Z"/><path class="cls-19" d="M391.92,547.5H99.27a19,19,0,0,1-17.78-12.84L14.05,344.47c-3.61-10.17,3.67-21,14.15-21H324.71a21.38,21.38,0,0,1,20,14.48l65,183.17C414.23,534,405.08,547.5,391.92,547.5Z"/><rect class="cls-19" x="88.58" y="547.5" width="455.83" height="20.66" rx="10.07"/></g></g></g></g></svg>