<svg xmlns="http://www.w3.org/2000/svg" viewBox="0 0 727.2 1263.17"><defs><style>.cls-1,.cls-14,.cls-15,.cls-16,.cls-18,.cls-4{fill:none;}.cls-1,.cls-19,.cls-2,.cls-3,.cls-4{stroke:#6562cf;}.cls-1,.cls-14,.cls-16,.cls-18{stroke-linecap:round;}.cls-1,.cls-14,.cls-15,.cls-16,.cls-18,.cls-19,.cls-2,.cls-3,.cls-4{stroke-miterlimit:10;}.cls-1,.cls-19{stroke-width:6px;}.cls-17,.cls-19,.cls-2{fill:#fff;}.cls-16,.cls-18,.cls-2,.cls-3,.cls-4{stroke-width:5px;}.cls-3{fill:#d1d1ff;}.cls-5{fill:#6562cf;}.cls-6{fill:#b65a18;}.cls-7{fill:#8382d8;}.cls-8{fill:#333b63;}.cls-9{fill:#c36f0b;}.cls-10{fill:#e5e6ff;}.cls-11{fill:#3f4d79;}.cls-12{fill:#ffb000;}.cls-13{fill:#ffc033;}.cls-14{stroke:#a55f2b;}.cls-14,.cls-15{stroke-width:4px;}.cls-15{stroke:#3f4d79;}.cls-16{stroke:#ffb000;}.cls-18{stroke:#fff;}</style></defs><g id="Layer_2" data-name="Layer 2"><g id="Слой_1" data-name="Слой 1"><g id="_4" data-name="4"><g id="CHAIR"><path class="cls-1" d="M531.54,870.67v172.69a153.26,153.26,0,0,0,72.8,130.44l63.7,39.29"/><path class="cls-1" d="M497,870.67v172.69a153.27,153.27,0,0,1-72.79,130.44l-63.71,39.29"/><path class="cls-2" d="M493.45,838.64H531.9a32,32,0,0,1,32,32v0a0,0,0,0,1,0,0H461.42a0,0,0,0,1,0,0v0A32,32,0,0,1,493.45,838.64Z" transform="translate(1025.35 1709.3) rotate(-180)"/><polygon class="cls-2" points="573.68 783.36 604.68 783.36 616.76 716.03 585.76 716.03 573.68 783.36"/><path class="cls-3" d="M334.77,795.7v26.09c0,3.45,9.45,6.68,25.88,9.43,31.56,5.29,88.86,8.83,154.32,8.83,99.51,0,180.19-8.18,180.19-18.26V795.7c0,5.1-20.72,9.73-54.11,13C608.55,812,564.05,814,515,814s-93.59-2-126.09-5.22c-10.84-1.08-20.34-2.29-28.23-3.61C344.22,802.38,334.77,799.15,334.77,795.7Z"/><path class="cls-2" d="M334.77,795.7c0,3.45,9.45,6.68,25.88,9.43,7.89,1.32,17.39,2.53,28.23,3.61C421.38,812,465.88,814,515,814s93.58-2,126.08-5.22c33.39-3.31,54.11-7.94,54.11-13,0-10.09-80.68-18.28-180.19-18.28-79.12,0-146.33,5.17-170.56,12.37C338.16,791.64,334.77,793.63,334.77,795.7Z"/><path class="cls-3" d="M589.11,718.24h35.52c31.41,0,64.88-40.23,74.76-89.87l22.54-113.26c9.88-49.64-7.57-89.87-39-89.87H647.43c-31.4,0-64.87,40.23-74.75,89.87L550.13,628.37C540.25,678,557.7,718.24,589.11,718.24Z"/><path class="cls-2" d="M568.11,718.24h35.52c31.41,0,64.88-40.23,74.76-89.87l22.54-113.26c9.88-49.64-7.57-89.87-39-89.87H626.43c-31.4,0-64.87,40.23-74.75,89.87L529.13,628.37C519.25,678,536.7,718.24,568.11,718.24Z"/><circle class="cls-3" cx="670.89" cy="1232.14" r="28.53"/><circle class="cls-3" cx="359.89" cy="1232.14" r="28.53"/><path class="cls-4" d="M472.33,1126.81s36.93-27.11,83.93,0"/></g><g id="WOMAN"><g id="LEGS"><g id="LEFT"><path class="cls-5" d="M609,712.73C558,785,353.72,740.8,353.72,740.8c-1.35-28.08.7-101.76-49.13-143.78l115.21,3c91,8.51,158.4-9.68,179.37-19.06C617.17,607.14,645,661.7,609,712.73Z"/><path class="cls-6" d="M274.29,601.47s-141,8.59-153.07,38.69C83.5,734,229.78,1029.63,239,1102.3c7.72,61.14-42.81,93.84-42.81,93.84s22.74,15.63,54.65,7c6.83-1.85,13.16-10.43,25.91-20.78,9.48-7.69,32.83-21.53,32.43-33.21-.66-19.24-28.7-34.09-27.91-46.1s24.11-172.46,16-241.45c-9-77-67-119.08-67-119.08l123.9-1.5S334.78,639.89,274.29,601.47Z"/><path class="cls-7" d="M356.12,740.87s10.62-97.34-54-145.79c-5.11-3.83-19.37.85-27.57,2.47-3,.6-3.79,4-2,6.53,42.83,61.57,43.7,114.37,40.75,145.57Z"/><path class="cls-8" d="M307.5,1134a23,23,0,0,1-2,30.37l-44.65,44.09s-79.87,1.49-84.56,0-.46-14.83,12.54-18.73,30.77-25.52,30.77-25.52,14.19-15.21,37.34,31.89l15.49-13.61s-3.66-40.14,2.39-60.94H239a6.22,6.22,0,0,1-6.27-6.21,6,6,0,0,1,6-5.84h44.42a5.06,5.06,0,0,1,3.77,1.68Z"/></g><g id="RIGHT"><path class="cls-7" d="M639,743.73c-21.67,62.68-199.89,54.41-230.27,52.2a.57.57,0,0,0,0-.13c-1.35-28.08-9.57-116.68-59.4-158.7l66.14-16,7.42-20.79c88.91,7.77,154.72-9.84,175.89-19.16C613.38,600.57,663.14,673.87,639,743.73Z"/><path class="cls-9" d="M305.29,646.47s-146.35,28.2-152.66,71S239,1091.5,229,1152.3s-75.81,102.84-75.81,102.84,54.46,10.39,83.65,0c6.66-2.38,18.75-18.4,29.91-24.78,10.6-6.06,32.83-16.53,32.43-28.21-.66-19.24-28.7-35.09-27.91-47.1s45.11-184.46,37-253.45c-9-77-37-109.08-37-109.08l81.9-1.5S368.51,704.13,305.29,646.47Z"/><path class="cls-10" d="M360.06,800.53l40.35,4a8.31,8.31,0,0,0,8.31-8.73c-1.36-28.27-9.68-117.91-60.44-159.58a17.06,17.06,0,0,0-15-3.32l-34,8.75S368,688.59,351.85,790.86A8.34,8.34,0,0,0,360.06,800.53Z"/><path class="cls-11" d="M296.4,1184.45a23.43,23.43,0,0,1-2.06,31l-45.55,45s-91.68,1.52-96.47,0-.47-15.13,12.8-19.11,31.39-26,31.39-26,24.68-15.52,48.29,32.53l15.81-13.89s-3.74-41,2.43-62.17H226.48a6.34,6.34,0,0,1-6.4-6.33,6.15,6.15,0,0,1,6.14-6h45.31a5.17,5.17,0,0,1,3.85,1.71Z"/></g></g><path id="T-SHIRT" class="cls-12" d="M519.25,207.52c13.81,7.27,46.56,23.82,67.09,59.1s-24.47,163.6-23.87,201.88,36.89,104.58,43.21,107.58-74.2,36-193,23.27c0,0,9.4-53.54,2.54-76.81s-38.64-90.77-38.64-90.77-36.11-27.46-28.41-49.24c5.13-14.51,59.23-104.12,59.23-104.12Z"/><g id="HAND"><path class="cls-13" d="M639.28,399s-36.73,43.26-103.73,43.26c0,0-53.65-172.74,7.74-194.55S639.28,399,639.28,399Z"/><path class="cls-9" d="M643.59,512.66c-3.13,28.9-238.18,67.9-238.18,67.9l-.07-.14c-4.27,2.19-19.93,9.45-30.48,4.08-12.31-6.29-23.19-9-30.72-7.35-9.3,2-19.89,9.18-25.19,7.59a52.16,52.16,0,0,1-17.69-9.09,234.57,234.57,0,0,1,16.38-17.09c-5.29,1.66-12.85,6-16.76,7.31-6.27,2.16-8.65-3.92-8.65-3.92s15.06-10.62,19.16-13c7.16-4.06,23.26-8,27.68-8,7.73.2,49.15,5.43,69.65,9.14,33.67-17.59,119.26-61.72,152.48-73l-11.3-36.44s47.68-4.65,81.19-35C631.09,405.74,646.82,482.77,643.59,512.66Z"/><path class="cls-14" d="M308,577.62s22.62-19.55,27.59-20c8.76-.84,20.2-2,20.2-2"/><path class="cls-14" d="M315.36,581.88s20-16,25-16.49c8.76-.84,20.2-2,20.2-2"/><path class="cls-6" d="M636.4,434.71c-14.75,8.66-41.43,20.17-83.2,16.75l-3.31-10.69s47.69-4.64,81.19-35C631.08,405.74,633.6,418,636.4,434.71Z"/></g><g id="HEAD"><g id="HAIR"><path class="cls-11" d="M561.44,106.22S553.72,213.76,327.69,243c0,0-29.49-23.95-12-48.12s36.85-33.06,20.33-49.44-39.6-50.33-6.26-81.62S439.31-8.94,494.67,21.35,482.14,107.18,561.44,106.22Z"/><path class="cls-15" d="M316.73,243.06s-29.49-23.95-12-48.11,34.92-33.06,18.39-49.44-33.59-55.73,4.06-81.67c43.72-30.12,89.67-43.81,143.69-23"/></g><g id="NECK"><path class="cls-9" d="M461,113.71s9.19,64.7,58.08,93.8c0,0-32,64.13-113.62,74.5,0,0,23.3-42.41,23.24-55.92S418,173.5,418,173.5Z"/><path class="cls-6" d="M463.52,137.83c.82,30.19-20.32,53.8-38.16,66.25C422.24,189.16,418,173.5,418,173.5l43-59.79a121,121,0,0,0,2.67,12.41C463.46,129.68,463.4,133.6,463.52,137.83Z"/></g><path id="HEAD-2" data-name="HEAD" class="cls-9" d="M456,87.05c-16.64-19-41.75-32.44-64.61-25.1-35.15,11.3-39.82,69.51,5.31,122.35,5.35,6.26,57.29-13.34,62.55-54.94C462,107.63,456,87.05,456,87.05Z"/><g id="HEADPHONES"><path class="cls-16" d="M458,91.19,440.58,20.3C437.45,8.22,426,.66,414.12,2.89l-34.35,7.33c-11,2.08-17.26,14.46-17.21,26.12"/><rect class="cls-17" x="439.29" y="85.47" width="48.17" height="48.17" rx="22.53" transform="translate(-12.77 111.47) rotate(-13.53)"/><path class="cls-18" d="M473.36,129.86c8,24,36.43,78.24,0,140.47s-82.82,108.76-47.29,174.56c30.84,57.12,28.8,144.88-54,144.88"/></g></g></g><g id="LAPTOP"><path class="cls-19" d="M135.44,583.58H120.06A17.66,17.66,0,0,1,103.87,573L4.49,344.63a17.65,17.65,0,0,1,16.19-24.7h0Z"/><path class="cls-19" d="M452.2,608.86H148.11a25.27,25.27,0,0,1-25.27-25.28H426.92a25.28,25.28,0,0,1,25.28,25.28Z"/></g></g></g></g></svg>