<svg xmlns="http://www.w3.org/2000/svg" viewBox="0 0 660.3 1260.51"><defs><style>.cls-1,.cls-8,.cls-9{fill:none;}.cls-1,.cls-10{stroke:#6562cf;stroke-width:6px;}.cls-1,.cls-10,.cls-2,.cls-8,.cls-9{stroke-miterlimit:10;}.cls-2,.cls-7{fill:#fff;}.cls-2,.cls-8{stroke:#ffb000;stroke-width:5px;}.cls-3{fill:#b65a18;}.cls-4{fill:#3f4d79;}.cls-5{fill:#c36f0b;}.cls-6{fill:#dbdaff;}.cls-9{stroke:#000;}.cls-10,.cls-11{fill:#eaeeff;}.cls-12{fill:#c7bfff;}</style></defs><g id="Layer_2" data-name="Layer 2"><g id="Слой_1" data-name="Слой 1"><g id="_3" data-name="3"><g id="CHAIR"><polyline class="cls-1" points="176.92 849.77 176.92 1011.34 28.82 1258.97"/><polyline class="cls-1" points="232.82 849.77 232.82 1011.34 380.92 1258.97"/><rect class="cls-2" x="44.21" y="794.77" width="321.33" height="55" rx="27.5"/><line class="cls-1" x1="204.87" y1="852.34" x2="204.87" y2="1259.35"/></g><g id="WOMAN"><g id="RIGHT_HAND" data-name="RIGHT HAND"><path class="cls-3" d="M365,403.45s-5.59,54.77-1.45,55.07c51.28,3.68,110.32,10,119.44,13.3,12.44,3.71,48.63,14.38,53.63,19,6.31,5.84,9.39,25,9.39,27.36S543,533,543,533s-8.7.23-8.82-9.24c-.17-11.22-10.5-13.42-17.49-15.5-2.92-.87-10,.57-10.72,4.9s10.38,8,12.46,10.84c3.16,4.25.86,9.77.81,9.88l-20.31-7.7c-3-1.13-18.26-14.86-25.65-27.74,0,0-144.5,44.79-180.43,22.25-13.58-8.51-11-35.77-5.47-77.61Z"/></g><path id="SKIRT" class="cls-4" d="M148.19,824.25c139.23.16,156.1,1.35,234.9-2.16,0,0-4.25-39.32,8.3-70.75,36.9-92.4,84.23-75.91,84.23-75.91-34.69-19.78-81.26-37.73-188.29-44.27-10.55-27.6-11.5-50.41-13.52-70.76l-177.14-.26S72.85,603.25,49.33,690.32C26.49,774.89,92.34,824.19,148.19,824.25Z"/><g id="LEGS"><g id="LOWER_LEG" data-name="LOWER LEG"><path id="LEG" class="cls-3" d="M521.15,857.53c6.15-33.26-1.07-89.27-51.26-80.93S428.57,817,428.62,838.24c.14,61.13-20.59,92-27.37,144.6-9.36,72.65,5.7,160.38,19.23,218.25l-11.09,24.55s19.27,18,63.73,21,12.78-16.43,12.78-16.43c-21.74-21.4-33.66-36.82-28.06-77.54C461.85,1123.5,511.69,908.72,521.15,857.53Z"/><path id="SHOE" class="cls-4" d="M413.91,1214.76s-22.79,44.51,6,44.59c12.31,0,108-.28,108-.28s3.73-22.85-27.84-27.11c-4.39-.59-14.43-2-14.43-2s11.59,13.93-14.27,11.65C428.12,1237.77,427.7,1210.19,413.91,1214.76Z"/></g><g id="UPPER_LEG" data-name="UPPER LEG"><path id="LEG-2" data-name="LEG" class="cls-5" d="M447,678.65c45.83-22.08,51.64,35.74,44.52,62.72C488.61,752.52,458,841,448.62,870.91s-80.07,205.18-87.33,309.22c-.08,1.13-10.66,28.06-36.16-49.31-9.46-28.73,15.8-25.5,14.37-38.15-6.9-60.84-16.85-190.05-2.78-260C342.4,804.43,379,711.4,447,678.65Z"/><path id="SHOE-2" data-name="SHOE" class="cls-4" d="M338.74,1096.36S291,1100.85,305,1126c6,10.74,57.13,99.33,57.13,99.33s19.74-8,8-37.56c-1.64-4.12-7.76-18.87-7.76-18.87s-7,16.54-16.71-7.52C330.87,1124.87,348.39,1116,338.74,1096.36Z"/></g></g><path id="BLOUSE" class="cls-6" d="M292.13,550.61s11.83-64.44,33.16-126.8c0,0,7.58-3.8,59.07-30,0,0,1.24-73.45-36.91-108.31-25.19-23-76.78-40-76.78-40l-99.16-5.29c-19.12,1.13-67.09,6.92-109.89,40.76C19.31,314.41.24,352.29.24,352.29s56,13.14,96.76,61.54L68.48,550.61S101.47,569,178.15,571C271.81,573.4,292.13,550.61,292.13,550.61Z"/><g id="LEFT_HAND" data-name="LEFT HAND"><path class="cls-5" d="M339.3,472.47c-.31,11.57-29,2.79-29.19,7.26a5.73,5.73,0,0,0,1,4.41c1.32,1.85,2.19,4.27.35,7.84-2.46,4.78,5.74,6,3.25,13.71s1.36,6.73,1.84,14.65c.53,8.95-37.15,16.72-48.4,12.36a7.84,7.84,0,0,1-2.9-2.06C249.55,531.2,23.53,538.72,5.66,513-14.86,483.51,27,361.78,27,361.78c39.88,14.78,73.08,52.06,73.08,52.06L89.81,456.89c62.48,3.24,132.28,24,168.19,36,.2-6.77,1.91-11.05,3-15.57.89-3.69,5.18-10.81,20.17-11.18S339.47,466.43,339.3,472.47Z"/><path class="cls-3" d="M27,361.78s38.59,10.82,73.08,52.05L96.27,430S62.93,399.75,18.58,390.4Z"/></g><g id="HEAD"><path id="HAIR" class="cls-4" d="M373.32,124.71c-6.66,15.36-1.54,20.49-.52,25.09,1,4.44.19,30.51-36.44,29.93a16.09,16.09,0,0,0-2.93,14.48,12.5,12.5,0,0,0,15.43,8.58A9.59,9.59,0,0,0,355.44,191a7.26,7.26,0,0,0-9-5,5.43,5.43,0,0,0-3.72,6.69,3.92,3.92,0,0,0,4.86,2.7,2,2,0,0,1,1.1,3.85,7.94,7.94,0,0,1-9.8-5.45,9.41,9.41,0,0,1,6.47-11.64,11.27,11.27,0,0,1,13.92,7.75A13.58,13.58,0,0,1,350,206.64a16.8,16.8,0,0,1-4.54.63,16.47,16.47,0,0,1-15.82-12,20,20,0,0,1,2.07-15.78c-41.25-2.53-160.15,60.68-160.15,60.68s-25.6,7.42-33.29-9c0,0-40.46,2.11-48.65-23-3.25-9.95-2.4-17.32-.18-22.6a16.91,16.91,0,0,1-7.2,2.2q-.48,0-1,0A16.49,16.49,0,0,1,64.8,172.3,13.59,13.59,0,0,1,77.59,158a11.29,11.29,0,0,1,11.89,10.61,9.42,9.42,0,0,1-8.86,9.93,7.93,7.93,0,0,1-8.37-7.46,2,2,0,1,1,4-.23,3.93,3.93,0,0,0,4.15,3.7,5.42,5.42,0,0,0,5.1-5.71A7.26,7.26,0,0,0,77.82,162a9.56,9.56,0,0,0-9,10.11A12.48,12.48,0,0,0,82,183.83c5.73-.33,11.88-5.73,15.09-12.07C92.24,165.7,81.69,150,86,132.9c5.11-20.31,25.1-24.34,25.1-24.34s-18-37.85,16-56.07c9.05-4.85,17.19-6.52,24.3-6.34a18.24,18.24,0,0,1-2.21-2.9A10.67,10.67,0,0,1,152.14,29a8.08,8.08,0,0,1,6.29-1.24,8.37,8.37,0,0,1,5.37,3.84,7.55,7.55,0,0,1-2.1,10.11,2,2,0,0,1-2.25-3.31,3.51,3.51,0,0,0,.94-4.7,4.35,4.35,0,0,0-2.8-2,4.15,4.15,0,0,0-3.2.64,6.62,6.62,0,0,0-1.79,8.88c1.17,1.91,5.63,7.93,13.47,5.1h0a26.42,26.42,0,0,1,1.64-10.74A17,17,0,0,1,172,29.33a17.85,17.85,0,0,1,8.12-4.06,36.19,36.19,0,0,1,13.19-.2s1.47-12.38,15.37-17.41c21.15-7.66,41,6.42,41,6.42s18.2-21.26,44.32-11.53C316.64,11,319.22,27,319.51,31.06a14.22,14.22,0,0,0,9.29-2.53c6.74-4.91,4.25-12,3.33-14a6.63,6.63,0,0,0-8.36-3.5,4.13,4.13,0,0,0-2.32,2.3,4.37,4.37,0,0,0,.11,3.45A3.5,3.5,0,0,0,326,18.63a2,2,0,0,1,1.48,3.72,7.55,7.55,0,0,1-9.55-3.94,8.35,8.35,0,0,1-.17-6.59,8.1,8.1,0,0,1,4.55-4.51,10.65,10.65,0,0,1,13.48,5.56c2.55,5.65,2.67,13.58-4.62,18.9-.24.18-.49.35-.75.52,3.86.57,7.82,1.79,10.14,4.32,5.63,6.15,0,14.34,0,14.34s14.08,2.56,18.56,13.32-2.69,16.39,5.51,24.07S380,109.34,373.32,124.71Z"/><path id="HOOP" class="cls-7" d="M235.27,172.89s.27-76.87,61.22-75.84,35.45,82.49,35.45,82.49Z"/><g id="NECK"><path class="cls-5" d="M235.32,170.33s-11.95,38.21-63.81,69.87c0,0,58.41,25.35,106,6.92Z"/><path class="cls-3" d="M277.55,247.11a105.09,105.09,0,0,1-33.74,6.62c-25.88-22.55-12.6-72.95-9.32-80.84.24-.58.59-1.31,1-2.17Z"/></g><path id="HEAD-2" data-name="HEAD" class="cls-5" d="M235.27,172.89c-4.05,9.74,17.68,74.23,42.28,74.23,28.67,0,82.7-90.16,42.23-111.67S239.12,163.59,235.27,172.89Z"/></g></g><g id="TABLET"><g id="TABLE"><path class="cls-7" d="M190.07,532.84H660.3a0,0,0,0,1,0,0v26.29a0,0,0,0,1,0,0H190.07A13.15,13.15,0,0,1,176.92,546v0a13.15,13.15,0,0,1,13.15-13.15Z"/><path class="cls-8" d="M660.3,559.14H190.07A13.15,13.15,0,0,1,176.92,546h0a13.15,13.15,0,0,1,13.15-13.15H660.3"/></g><g id="TABLET-2" data-name="TABLET"><path class="cls-9" d="M505.53,532H278.87a7.24,7.24,0,0,1-6.54-10.35l69.75-147.06a20.67,20.67,0,0,1,18.7-11.83H587.44A7.24,7.24,0,0,1,594,373.13L524.23,520.19A20.71,20.71,0,0,1,505.53,532Z"/><path class="cls-10" d="M506.3,532H279.64a7.24,7.24,0,0,1-6.54-10.35l69.75-147.06a20.7,20.7,0,0,1,18.7-11.83H588.21a7.24,7.24,0,0,1,6.54,10.35L525,520.19A20.69,20.69,0,0,1,506.3,532Z"/><path class="cls-7" d="M281.59,528.3l68.35-144.13a20.29,20.29,0,0,1,18.33-11.59H579.4a7.1,7.1,0,0,1,6.41,10.15L521,519.43a13.06,13.06,0,0,1-11.72,7.47Z"/><polygon class="cls-11" points="387.61 448.65 387.61 528.3 433.92 528.3 387.61 448.65"/><polygon class="cls-9" points="556.68 531.61 437.77 531.61 391.46 451.97 510.37 451.97 556.68 531.61"/><polygon class="cls-12" points="548.77 531.61 438.35 531.61 392.04 451.97 502.46 451.97 548.77 531.61"/><polygon class="cls-7" points="559.77 531.61 449.35 531.61 403.04 451.97 513.46 451.97 559.77 531.61"/><polygon class="cls-1" points="556.68 532.02 437.77 532.02 391.46 452.38 510.37 452.38 556.68 532.02"/></g></g></g></g></g></svg>