<svg xmlns="http://www.w3.org/2000/svg" viewBox="0 0 1028.78 1235.28"><defs><style>.cls-1,.cls-2,.cls-7{fill:#fff;}.cls-1{stroke:#6562cf;}.cls-1,.cls-10,.cls-4,.cls-8{stroke-miterlimit:10;}.cls-1,.cls-4,.cls-8{stroke-width:5px;}.cls-11,.cls-2{stroke:#ffb000;stroke-linejoin:round;stroke-width:7px;}.cls-3{fill:#6562cf;}.cls-10,.cls-11,.cls-4,.cls-8{fill:none;}.cls-4,.cls-8{stroke:#fff;}.cls-5{fill:#424d76;}.cls-6{fill:#dbdaff;}.cls-10,.cls-8{stroke-linecap:round;}.cls-9{fill:#b6732b;}.cls-10{stroke:#a85f2b;stroke-width:3px;}.cls-12{fill:#a85f2b;}</style></defs><g id="Layer_2" data-name="Layer 2"><g id="Слой_1" data-name="Слой 1"><g id="_1" data-name="1"><g id="CHAIR"><path class="cls-1" d="M53.7,1230.1h0a10.15,10.15,0,0,1-10.2-9.89L83.72,774.4h40L63.91,1220.21A10.16,10.16,0,0,1,53.7,1230.1Z"/><path class="cls-1" d="M297.23,1230.1h0a10.16,10.16,0,0,0,10.21-9.89L267.22,774.4h-40L287,1220.21A10.15,10.15,0,0,0,297.23,1230.1Z"/><rect class="cls-2" x="3.5" y="718.28" width="343.94" height="56.12" rx="27.47"/></g><g id="MAN"><g id="SHOES"><path class="cls-3" d="M755.59,1214.4s-62.76,0-92.27-.18c-24.82-.16-74,2-74.46-9.94-.43-11,10.7-39.61,12.42-49.26a119.77,119.77,0,0,0,56.71-12.4c6.4,6.25,42.07,39.94,71.37,43.39C761.68,1189.82,755.59,1214.4,755.59,1214.4Z"/><path class="cls-3" d="M371.07,1234.64s-88.52,1.43-99.29,0-41.22-26.81-41.22-26.81c0-21.82,14.21-46.12,17.71-54.31,12,3.64,31.86,7.57,58.32,5.58.67,7.51,4.69,33.91,28,37C373.2,1201.18,371.07,1234.64,371.07,1234.64Z"/><path class="cls-4" d="M297.14,1203s14.28-9.74,38.4-9.86"/></g><g id="PANTS"><path id="PANTS-2" data-name="PANTS" class="cls-5" d="M128.87,581S86.79,656.91,103.65,713s116.63,46.83,116.63,46.83S188.42,884.94,235,1148.41c0,0,36.77,20,99.52,6.65,0,0,9.37-122.69,52.9-393.76l82,4.73s-31.6,149.08,116.65,387.14c0,0,41.59,11,87.49-19.47,0,0-58-268.73-67.88-433.25C602.78,652,520,607.21,357.19,580.07,357.19,580.07,186.48,590.85,128.87,581Z"/><path class="cls-4" d="M390.44,762.3c3.31-19,20-100-87.74-126.62"/><path class="cls-4" d="M230.57,729s-9.49,12.28-13.29,32.89"/></g><g id="SHIRT"><path class="cls-6" d="M364.14,546.06S462.28,353.64,474,293c15.14-78.18-17.15-106.08-36.41-112.36s-149-41-149-41c-23.88,3.42-126.89,23.65-160.92,44.8C110.38,195.3,129.23,548,129.23,548c-6.21,19.25-26.52,67.21-26.52,67.21s66.72,25.22,190.62,5.32l24.49-38.55s15.56,27.91,22.2,29.9,45.84-7.44,62.71-23.29C402.73,588.54,364.08,561.32,364.14,546.06Z"/><g id="BUTTONS"><circle class="cls-4" cx="319.12" cy="276.17" r="7.24"/><circle class="cls-4" cx="319.12" cy="343.22" r="7.24"/><circle class="cls-4" cx="317.92" cy="402.48" r="7.24"/><circle class="cls-4" cx="313.92" cy="453.48" r="7.24"/><circle class="cls-4" cx="309.92" cy="513.48" r="7.24"/><circle class="cls-4" cx="297.92" cy="564.48" r="7.24"/></g><path class="cls-7" d="M287.07,130.56s24.81,36.68,32.49,56.53c0,0-14.86,1.24-30.92,20.49,0,0-46.56-40.39-53.73-57.48C234.91,150.1,276.72,133.32,287.07,130.56Z"/><path class="cls-8" d="M301.33,158.55c17.23,28.54,34.54,68.73,37.33,98.06,1.82,19.11-3.83,230.94-3.83,230.94C334,509,335.6,570,292.33,618.48"/><line class="cls-4" x1="338.66" y1="256.61" x2="377.63" y2="196.52"/></g><g id="LEFT_HAND" data-name="LEFT HAND"><path class="cls-6" d="M143.52,177.31C56,203.6-13.51,373.55,12.76,458.58c8.07,26.11,72.89,29.66,135.6,29.59,84-.09,186.33-.62,186.33-.62L337,443.8s-117.18-53.58-193.19-54.9C143.85,388.9,267.08,140.2,143.52,177.31Z"/><path class="cls-4" d="M334.69,487.55l.58-43.59s-115.22-52.1-191.42-56.13c0,0,24-55.39,39.67-108.26"/><path class="cls-9" d="M337.45,482.35s17.41,19,32.49,14.86,29.16-7.09,37.11-3.53c9.83,4.4,19.91,14.74,26.14,14.19a59,59,0,0,0,21.67-6,264.36,264.36,0,0,0-14.21-22.69c5.48,3.05,12.87,9.55,16.89,11.94C464,495,468,488.78,468,488.78s-11.57-14.66-16.49-18.37c-4.72-3.57-21.65-14.52-28.82-15.17-8.64-1.56-61.44-14.95-85.07-12Z"/><path class="cls-10" d="M447,502.5S426.4,475.66,421,474c-9.51-2.93-21.91-6.83-21.91-6.83"/><path class="cls-10" d="M437.83,505.53s-18.47-22.32-23.86-24c-9.51-2.94-21.91-6.83-21.91-6.83"/><line class="cls-4" x1="310.68" y1="434.24" x2="290.97" y2="490.58"/><path class="cls-4" d="M122.36,491.17c84-.09,212.33-3.62,212.33-3.62"/></g><g id="RIGHT_HAND" data-name="RIGHT HAND"><path class="cls-9" d="M781.89,592.62c6.42,6.79,33.57,38.11,44.93,41.39s47.15-4.1,50-5.83S896,613.11,896,613.11s-5.41-10.66-17.2-3.8c-14,8.14-31.13-1.08-38.3-8-3-2.86-5.26-12.57-.35-16.62s16.74,6.58,21.58,7c7.39.68,12.73-6.35,12.73-6.35s-19.17-15.77-22.83-18.81-30.08-14.12-51.26-11.66S767,576.89,781.89,592.62Z"/><path class="cls-6" d="M434.86,180.71S490.93,190.46,530,236c31.07,36.2,99.12,171.76,101.88,174.52S779.13,526,806.72,550c0,0-21.65,10-31.07,49.78,0,0-184.15-57.62-239.59-116.32C457.89,400.64,379.49,278.14,434.86,180.71Z"/><path class="cls-4" d="M782.72,528s-34,18.2-38.07,61.78"/><path class="cls-4" d="M468,302s-6.08,40.43-18.78,69"/><path class="cls-1" d="M825.34,593.7H961.1c18.7,0,33.84,16,33.84,35.66v127c0,19.7,15.16,35.66,33.84,35.66H893c-18.69,0-33.84-16-33.84-35.66V630.7a33.78,33.78,0,0,0-26.49-33.49l-7.35-1.33Z"/><line class="cls-11" x1="966.28" y1="637.49" x2="889.12" y2="637.49"/><line class="cls-11" x1="966.28" y1="691.35" x2="889.12" y2="691.35"/><line class="cls-11" x1="966.28" y1="718.28" x2="889.12" y2="718.28"/><line class="cls-11" x1="966.28" y1="745.21" x2="889.12" y2="745.21"/><line class="cls-11" x1="966.28" y1="664.42" x2="889.12" y2="664.42"/></g><g id="HEAD"><path id="NECK" class="cls-12" d="M338,104.75c-3.54,4.71-9.19,25.1-45.4,35,0,0,37.71,49.09,47,110.9l40-62.09Z"/><path id="HAIR" class="cls-5" d="M490,67.76c-2.93,9.5-16.81,8.71-16.86,10.45s7.38,5,5.69,12.84c-1.61,7.45-7.7,8.67-13.15,8.14a11.07,11.07,0,0,0-.14-1.59c-3.76-22.28-56.18-41.39-78.9-26.09a76.21,76.21,0,0,0-29.82,40.86s-4.87-15.19-14.22-11.8a11,11,0,0,0-4.15,2.51c2.14-9.81,6.3-37.39,6.13-43.91-.2-7.43-15.39-26.19-3.65-38s25.3-2.59,25.3-2.59S372.64-1,391.48,0c16.75,1,21,12,21,12s4.64-9.45,13.6-7.66a14.75,14.75,0,0,1,9.42,6.92S446.7,4,454.8,10a12.81,12.81,0,0,1,4.84,14.57s15.71-5.61,23.89,7c5.4,8.29-2.95,19.91-2.95,19.91S493,58.25,490,67.76Z"/><path id="HEAD-2" data-name="HEAD" class="cls-9" d="M349.19,133.08s-11.13,25,6.45,43c21.11,21.64,46.21,28.13,55,27.54s58.22-86.69,55-106c-3.76-22.28-56.18-41.4-78.9-26.1a76.21,76.21,0,0,0-29.82,40.87s-4.88-15.19-14.23-11.8C325,107,349.19,133.08,349.19,133.08Z"/><path id="BEARD" class="cls-5" d="M372.38,79.62c-2.81,7-25,47.27-9.29,67.48s27.42-9.16,57.07,1.33c17.68,6.24,13.34,23.88,13.34,23.88s-5.08,11.14-12.59,34.16c-1.71,5.21-66.88-6-76.7-48.34-4.27-18.39,7.78-47.06,17.43-64C367.44,83.91,372.38,79.62,372.38,79.62Z"/></g></g></g></g></g></svg>