<svg xmlns="http://www.w3.org/2000/svg" viewBox="0 0 598.38 1202.98"><defs><style>.cls-1,.cls-11,.cls-12,.cls-4,.cls-6{fill:none;stroke-miterlimit:10;}.cls-1,.cls-12{stroke:#ffb000;}.cls-1,.cls-6{stroke-linecap:round;}.cls-1,.cls-4{stroke-width:5px;}.cls-2{fill:#dbdaff;}.cls-3{fill:#fff;}.cls-4{stroke:#6562cf;}.cls-5{fill:#ffd1cb;}.cls-6{stroke:#eeb9af;}.cls-11,.cls-6{stroke-width:3px;}.cls-7{fill:#ffb000;}.cls-8{fill:#f3c2b9;}.cls-9{fill:#ffc440;}.cls-10{fill:#424d76;}.cls-11{stroke:#424d76;}.cls-12{stroke-width:4px;}</style></defs><g id="Layer_2" data-name="Layer 2"><g id="Слой_1" data-name="Слой 1"><g id="_4" data-name="4"><g id="CHAIR"><path class="cls-1" d="M410.16,1200,447.59,779a25.82,25.82,0,0,1,25.66-22.94h0A25.82,25.82,0,0,1,498.91,779L546.34,1200"/><path class="cls-1" d="M151.16,1200,188.59,779a25.82,25.82,0,0,1,25.66-22.94h0A25.82,25.82,0,0,1,239.91,779L287.34,1200"/><path class="cls-2" d="M559.44,729.94c0,19.07-96.56,34.53-215.68,34.53S128.07,749,128.07,729.94c0-3.27,2.83-6.43,8.13-9.42,25.62-14.49,108.85-25.11,207.56-25.11S525.69,706,551.31,720.52C556.61,723.51,559.44,726.67,559.44,729.94Z"/><path class="cls-3" d="M551.31,720.52c-22.81,16.85-107.08,29.35-207.55,29.35S159,737.37,136.2,720.52c25.62-14.49,108.85-25.11,207.56-25.11S525.69,706,551.31,720.52Z"/><ellipse class="cls-4" cx="343.75" cy="729.94" rx="215.68" ry="34.53"/></g><g id="WOMAN"><g id="LEFT_HAND" data-name="LEFT HAND"><path class="cls-5" d="M293.73,206.66S288.79,326.08,278.5,348s-71.2,122.84-95.2,120.5C137.88,464,72.85,251.18,64.9,224.6c0,0,0,0,0,0-3.89-6.35-8-10.45-14.71-13.56C17.74,195.85,12.06,183.4,5.27,172.31L.39,139.58c14.82-8.69,26.83,15.61,30.82,21.37,10.6,15.3,24.08,11.62,28.89,11,7.08-.94-3.55-9.43-7.62-17.12-5.87-11.09,1.75-17.48,1.75-17.48,1.46,5.84,26,32.49,33.83,41.65,7.2,8.41,6.52,25.93,6.36,28.76,0,0,0,0,0,0,9.8,14.92,85.45,144.5,85.45,144.5s42.66-102.32,60-121.34C252.47,217.16,281.72,210.56,293.73,206.66Z"/><path class="cls-6" d="M21.15,172.58S19.06,161,12.36,154.76c0,0-2.18-12.85-10.86-15"/><path class="cls-6" d="M27.84,169.88s-2.65-11.42-9.65-17.37c0,0-7.2-17.65-16.59-12.8"/></g><g id="LEGS"><g id="LEFT"><path class="cls-7" d="M204.32,1203H192.4L193,1170,178.32,1203H87.85s-1.59-18.68,13.33-21.27c12.63-2.2,24.64-15.5,24.64-15.5l61.82-59.8c5.55,6.73,21.34,23,22,48.47A192.73,192.73,0,0,1,204.32,1203Z"/><path class="cls-5" d="M69.12,645.54c-19.46,2.65-49.69,37.53-25.87,106.32s112.06,333.83,111.18,353.75c-1.17,26.61-28.61,60.6-28.61,60.6s29.21,15.3,46.7-9.35,15.12-50.45,15.12-50.45,7.05-215.84-19-351.46C156.67,692.82,104.1,640.77,69.12,645.54Z"/><path class="cls-8" d="M176.86,811.48c-7.72.24-15.62.24-23.63-.05C110.86,809.92,78.28,800,56.45,790.6c-2-5.86-3.83-11.36-5.57-16.45,21.68,8.16,56.21,17.64,102.35,19.28q9.47.35,18.67.33h0C173.5,799.37,175.16,805.29,176.86,811.48Z"/></g><g id="RIGHT"><path class="cls-9" d="M294.78,1203H282.86l.59-32.94L263.77,1203H176.31s-1.59-18.68,13.33-21.27c12.63-2.2,26.64-15.5,26.64-15.5l61.82-59.8c5.55,6.73,21.34,23,22,48.47A193.28,193.28,0,0,1,294.78,1203Z"/><path class="cls-5" d="M167.57,646.94c-15.74,11.73-31.73,38.13-7.92,106.92s86.83,331.87,85.24,351.75-28.61,60.6-28.61,60.6,29.21,15.3,46.7-9.35,15.12-50.45,15.12-50.45S321.77,908.59,297,777C283.45,704.75,211.3,614.34,167.57,646.94Z"/><path class="cls-8" d="M299.08,789.05c-18.2,6.3-65.38,20.64-121.86,22.42h-.36c-1.7-6.19-3.36-12.11-5-17.72a602.08,602.08,0,0,0,125.7-13.62C298.14,783.08,298.62,786.05,299.08,789.05Z"/></g></g><path id="SKIRT" class="cls-10" d="M24.14,761.76S8.29,671.42,70.3,631.47,313.39,558.63,305.51,518l158.62-3.58S500,566.71,505.81,622.18c6.74,64.21-7.78,112.74-139,112.47-70.42-.15-60.7,43.45-60.7,43.45s-69.27,18.32-152.89,15.33S24.14,761.76,24.14,761.76Z"/><path id="TORSO" class="cls-7" d="M324.39,194.86c-9.44,2.14-30.66,11.79-30.66,11.79s-29,110-36,124.79-11.57,38.59,18,59.82l30,128.65H464.18s12.22-134.44,20.59-181.4-2.09-136.79-2.09-136.79L424,194.86Z"/><g id="RIGHT_HAND" data-name="RIGHT HAND"><path class="cls-5" d="M597.55,487.32c-7,41.91-247.61,33.48-263.16,32.89-3.72,3.85-16.83,16.32-28,13.88-13.18-2.9-24.34-10.76-32.45-6.94s-17.41,11.78-22.87,11.4a61.32,61.32,0,0,1-18.94-4.2,184.56,184.56,0,0,1,12.42-15.9c-4.78,2.14-11.25,6.69-14.76,8.37a7.54,7.54,0,0,1-9.16-1.65s12-10.79,16.36-13.39c4.13-2.5,17-8.62,23.26-9.07,7.56-1.1,52.44-10,73.1-7.89l0,.19c9.06-2.43,174.9-46.78,186.58-49.29,0,0-41.17-135.08-46.74-157.37s-7.45-88.23,9.49-86.63c11,1.05,36,3.42,50.57,36.91C543.63,262.43,606.25,435.59,597.55,487.32Z"/><path class="cls-6" d="M239,534.78s18-18.81,22.69-20c8.31-2.06,19.16-4.79,19.16-4.79"/><path class="cls-6" d="M247.61,535.93s15.54-14.67,20.26-15.84c8.31-2.06,19.16-4.78,19.16-4.78"/></g><g id="HEAD"><g id="NECK"><path class="cls-5" d="M344.54,129.68c0,4.71,9.86,35.59-20.15,65.18,0,0,41.59,15.44,99.57,0,0,0-16.73-64.61-16.33-83.87Z"/><path class="cls-8" d="M401.62,125.36c-3,31-35.62,55.57-66.62,56.74,16.78-25.16,9.54-48.38,9.54-52.42l56.06-16.8C401.17,117.74,401.89,122.6,401.62,125.36Z"/></g><g id="HAIR"><path class="cls-10" d="M308.7,70.16c-3.58-4.2-5.78-31.34,9.05-44.17C345.93,1.59,398-8.76,429.21,8.73c30.1,16.83,42.09,39.1,37.25,82.2-4.62,41.23-14.59,49.57,11,80.06,23,27.41,30.13,66.09,16.17,98.54-34.05,79.15,32,77.47,32,117.44H423.29s-71.47-61.89-36.55-138.84c31.25-68.84,36.69-92.44,14.33-130C389.32,98.35,308.7,70.16,308.7,70.16Z"/><path class="cls-11" d="M421,6.19c26.33,8.57,59.84,39.11,55,82.2-4.62,41.23-14.59,49.58,10.95,80.06,23,27.41,30.13,66.1,16.17,98.54-34,79.16,32,77.48,32,117.44"/></g><path id="HEAD-2" data-name="HEAD" class="cls-5" d="M400.83,97.93s16-2.06,17.05,3.75c2.1,11.81-15.55,16.42-15.55,16.42s-3.2,8.61-7.15,17.26c-2.33,5.11-37.67,21.89-53.66,20.21S310.19,112.3,310,75.22c-.16-26.93,8.62-41,27.13-41,25.8,0,37.86,19.12,55.53,13.66C392.63,47.87,381.06,74.79,400.83,97.93Z"/><g id="GLASSES"><circle class="cls-12" cx="313.83" cy="91.05" r="18.81"/><circle class="cls-12" cx="360.74" cy="91.05" r="18.81"/><line class="cls-12" x1="332.63" y1="91.05" x2="341.93" y2="91.05"/><line class="cls-12" x1="379.55" y1="91.05" x2="418.88" y2="91.05"/></g></g></g></g></g></g></svg>