<svg xmlns="http://www.w3.org/2000/svg" viewBox="0 0 994.91 1333.9"><defs><style>.cls-1,.cls-13,.cls-2,.cls-5{fill:#fff;}.cls-1,.cls-4{stroke:#3f4d79;}.cls-1,.cls-13,.cls-14,.cls-15,.cls-4{stroke-linecap:round;}.cls-1,.cls-11,.cls-12,.cls-13,.cls-14,.cls-15,.cls-4,.cls-5{stroke-miterlimit:10;}.cls-1,.cls-13,.cls-14,.cls-15,.cls-4,.cls-5{stroke-width:6px;}.cls-15,.cls-3{fill:#f0e1d4;}.cls-11,.cls-12,.cls-14,.cls-4{fill:none;}.cls-11,.cls-13,.cls-14,.cls-15,.cls-5{stroke:#d8baa3;}.cls-6{fill:#ffcfc9;}.cls-7{fill:#3f4d90;}.cls-8{fill:#642648;}.cls-9{fill:#722d54;}.cls-10{fill:#f3e7dd;}.cls-11{stroke-width:4px;}.cls-12{stroke:#3f4d90;stroke-width:3px;}</style></defs><g id="Layer_2" data-name="Layer 2"><g id="Слой_1" data-name="Слой 1"><g id="_2" data-name="2"><g id="COMPUTER"><path class="cls-1" d="M59,508.14H487.29a17.75,17.75,0,0,1,17.76,17.75v4.7a17.76,17.76,0,0,1-17.76,17.75H59.87"/><polyline class="cls-2" points="385.24 745.52 385.24 549 423.91 549 423.91 744.62"/><polygon class="cls-3" points="385.24 561.34 385.24 549 423.91 549 423.91 591.89 385.24 561.34"/><polyline class="cls-4" points="385.24 730.52 385.24 549 423.91 549 423.91 742.72"/><polygon class="cls-5" points="425.48 490.48 425.48 501.36 268.25 463.15 111.02 501.36 111.02 490.48 251.79 444.86 251.79 310.19 286.76 310.19 286.76 445.53 425.48 490.48"/><path class="cls-5" d="M513.14,401.68H65.26c-5.28,0-9.61-4.48-10-10.18a17.75,17.75,0,0,0-.2-1.77L3.22,108.8a11.44,11.44,0,0,1,.77-7,10,10,0,0,1,8.94-6H460.81c5.28,0,9.61,4.49,10,10.19a17.23,17.23,0,0,0,.2,1.76l51.82,280.94a11.45,11.45,0,0,1-.77,7A10,10,0,0,1,513.14,401.68Z"/><path class="cls-5" d="M500.69,388.18H73.43c-5.1,0-9.23-4.54-9.23-10.16l-48-260.24c0-5.61,4.13-10.16,9.23-10.16H452.68c5.09,0,9.23,4.55,9.23,10.16l48,260.24C509.91,383.64,505.78,388.18,500.69,388.18Z"/></g><g id="WOMAN"><g id="LEGS"><g id="RIGHT"><g id="FOOT"><path class="cls-6" d="M629,1258.75l13.33-91.54c-44.39,5-64.34,0-64.34,0l15.18,69.54c-.33,11.28-24,56.5-36.52,60.32S601.44,1312.5,629,1258.75Z"/><path class="cls-7" d="M523.76,1333.07H632.63s18.58-35,15.68-58.3c-3.71-30-20.26-33.51-20.26-33.51-15.27,0-11.34,38.08-40.48,51.35-14.52,6.61-26.94,2.46-39.5,6.29C520,1307.46,523.76,1333.07,523.76,1333.07Z"/></g><path id="LEG" class="cls-8" d="M462.4,835.7C472.07,853.42,534,977.89,578,1167.21c0,0,20.63,6.51,64.34,0,0,0,39.81-229.12-4.07-302.33Z"/></g><g id="LEFT"><path id="LEG-2" data-name="LEG" class="cls-9" d="M808,601.81s62.47,156.46,29.07,216.12C781.41,917.28,462.4,835.7,462.4,835.7s69.65,85.57-11.36,330c0,0-2.92,9.94-65.51,2,0,0-76.72-352.5-76.73-427.62,0-61.5,110-80.64,289.87-67.72,0,0,23.76-21.34,41.66-66C640.33,606.3,692.73,622.68,808,601.81Z"/><g id="FOOT-2" data-name="FOOT"><path class="cls-6" d="M438,1258.75l13.33-91.54c-44.39,5-65.34,0-65.34,0l16.18,69.54c-.33,11.28-24,56.5-36.52,60.32S410.44,1312.5,438,1258.75Z"/><path class="cls-7" d="M332.76,1333.07H441.63s18.58-35,15.68-58.3c-3.71-30-20.26-33.51-20.26-33.51-15.27,0-11.34,38.08-40.48,51.35-14.52,6.61-26.94,2.46-39.5,6.29C329,1307.46,332.76,1333.07,332.76,1333.07Z"/></g></g></g><g id="BLOUSE"><path id="BLOUSE-2" data-name="BLOUSE" class="cls-10" d="M853.12,384.23c-17.54,71.66-42,196.86-42.69,213.84s-119.65,27.83-172.6,12.22c0,0-14.63-84.14-18.29-129.72-27.75,39-56.06,69.3-75.3,69.3-70.6,0-187.06-39.59-195.89-49.09l5.13-26.7c29.19.68,172.43-16.56,172.43-16.56s56.92-144.82,94.14-174.73l.16-.14c24.44-22.56,87.89-29.79,102.11-33.29,14.71-3.62,89.73-13.8,89.73-13.8C837.5,252,868.73,320.41,853.12,384.23Z"/><g id="PATTERN"><path class="cls-2" d="M638.1,274.41a8.22,8.22,0,0,1-14.44,5.36,77.81,77.81,0,0,1,13.88-8.3A8,8,0,0,1,638.1,274.41Z"/><circle class="cls-2" cx="663.82" cy="274.42" r="8.21"/><circle class="cls-2" cx="697.76" cy="274.42" r="8.21"/><circle class="cls-2" cx="731.69" cy="274.42" r="8.21"/><circle class="cls-2" cx="765.63" cy="274.42" r="8.21"/><circle class="cls-2" cx="799.56" cy="274.42" r="8.21"/><path class="cls-2" d="M841.6,275.73h0a8.21,8.21,0,1,1-8.1-9.54,8,8,0,0,1,4,1C838.89,270,840.27,272.77,841.6,275.73Z"/><path class="cls-2" d="M621.13,297.4a8.2,8.2,0,0,1-16.17,2,125.27,125.27,0,0,1,8.33-10.16A8.2,8.2,0,0,1,621.13,297.4Z"/><circle class="cls-2" cx="646.85" cy="297.41" r="8.21"/><circle class="cls-2" cx="680.79" cy="297.41" r="8.21"/><circle class="cls-2" cx="714.72" cy="297.41" r="8.21"/><circle class="cls-2" cx="748.66" cy="297.41" r="8.21"/><circle class="cls-2" cx="782.59" cy="297.41" r="8.21"/><circle class="cls-2" cx="816.53" cy="297.41" r="8.21"/><path class="cls-2" d="M851.87,305.48a7.15,7.15,0,0,1-1.4.13,8.21,8.21,0,0,1-3.26-15.74C849,294.87,850.52,300.09,851.87,305.48Z"/><path class="cls-2" d="M722.94,250.33a8.21,8.21,0,0,1-16.17,2c6.94-1.25,12.43-2.2,15.55-3l.53-.13A5.87,5.87,0,0,1,722.94,250.33Z"/><path class="cls-2" d="M756.87,250.33a8.21,8.21,0,1,1-15-4.54c3.74-.61,7.78-1.23,12-1.88A8.2,8.2,0,0,1,756.87,250.33Z"/><circle class="cls-2" cx="782.59" cy="250.33" r="8.21"/><circle class="cls-2" cx="816.53" cy="250.33" r="8.21"/><circle class="cls-2" cx="629.88" cy="322.58" r="8.21"/><path class="cls-2" d="M604.16,322.58a8.2,8.2,0,0,1-16,2.62q3.26-5.58,6.49-10.72a6.77,6.77,0,0,1,1.28-.11A8.22,8.22,0,0,1,604.16,322.58Z"/><circle class="cls-2" cx="663.82" cy="322.58" r="8.21"/><circle class="cls-2" cx="697.76" cy="322.58" r="8.21"/><circle class="cls-2" cx="731.69" cy="322.58" r="8.21"/><circle class="cls-2" cx="765.63" cy="322.58" r="8.21"/><circle class="cls-2" cx="799.56" cy="322.58" r="8.21"/><circle class="cls-2" cx="833.5" cy="322.58" r="8.21"/><circle class="cls-2" cx="612.92" cy="345.57" r="8.21"/><path class="cls-2" d="M587.19,345.57a8.21,8.21,0,0,1-13.57,6.22c2.47-4.8,5-9.53,7.51-14.14A8.2,8.2,0,0,1,587.19,345.57Z"/><circle class="cls-2" cx="646.85" cy="345.57" r="8.21"/><circle class="cls-2" cx="680.79" cy="345.57" r="8.21"/><circle class="cls-2" cx="714.72" cy="345.57" r="8.21"/><circle class="cls-2" cx="748.66" cy="345.57" r="8.21"/><circle class="cls-2" cx="782.59" cy="345.57" r="8.21"/><circle class="cls-2" cx="816.53" cy="345.57" r="8.21"/><path class="cls-2" d="M857.3,350.12h0a8.21,8.21,0,1,1-.17-9.36h0Q857.34,345.43,857.3,350.12Z"/><circle class="cls-2" cx="629.88" cy="369.66" r="8.21"/><circle class="cls-2" cx="663.82" cy="369.66" r="8.21"/><circle class="cls-2" cx="697.76" cy="369.66" r="8.21"/><circle class="cls-2" cx="731.69" cy="369.66" r="8.21"/><circle class="cls-2" cx="765.63" cy="369.66" r="8.21"/><circle class="cls-2" cx="799.56" cy="369.66" r="8.21"/><circle class="cls-2" cx="833.5" cy="369.66" r="8.21"/><circle class="cls-2" cx="612.92" cy="392.64" r="8.21"/><circle class="cls-2" cx="646.85" cy="392.64" r="8.21"/><circle class="cls-2" cx="680.79" cy="392.64" r="8.21"/><circle class="cls-2" cx="714.72" cy="392.64" r="8.21"/><circle class="cls-2" cx="748.66" cy="392.64" r="8.21"/><circle class="cls-2" cx="782.59" cy="392.64" r="8.21"/><circle class="cls-2" cx="816.53" cy="392.64" r="8.21"/><path class="cls-2" d="M853,384.82c-1.24,5.06-2.51,10.38-3.81,15.92a8.21,8.21,0,0,1,1.3-16.31A8.29,8.29,0,0,1,853,384.82Z"/><circle class="cls-2" cx="629.88" cy="417.82" r="8.21"/><circle class="cls-2" cx="595.95" cy="417.82" r="8.21"/><circle class="cls-2" cx="663.82" cy="417.82" r="8.21"/><circle class="cls-2" cx="697.76" cy="417.82" r="8.21"/><circle class="cls-2" cx="731.69" cy="417.82" r="8.21"/><circle class="cls-2" cx="765.63" cy="417.82" r="8.21"/><circle class="cls-2" cx="799.56" cy="417.82" r="8.21"/><circle class="cls-2" cx="833.5" cy="417.82" r="8.21"/><circle class="cls-2" cx="612.92" cy="440.81" r="8.21"/><circle class="cls-2" cx="595.95" cy="369.66" r="8.21"/><circle class="cls-2" cx="578.98" cy="392.64" r="8.21"/><circle class="cls-2" cx="562.01" cy="417.82" r="8.21"/><circle class="cls-2" cx="578.98" cy="440.81" r="8.21"/><path class="cls-2" d="M570.23,369.65a8.21,8.21,0,0,1-8.21,8.21,6.7,6.7,0,0,1-1.28-.11c2.23-4.67,4.53-9.39,6.86-14.1A8.13,8.13,0,0,1,570.23,369.65Z"/><circle class="cls-2" cx="545.05" cy="440.81" r="8.21"/><circle class="cls-2" cx="646.85" cy="440.81" r="8.21"/><circle class="cls-2" cx="680.79" cy="440.81" r="8.21"/><circle class="cls-2" cx="714.72" cy="440.81" r="8.21"/><circle class="cls-2" cx="748.66" cy="440.81" r="8.21"/><circle class="cls-2" cx="782.59" cy="440.81" r="8.21"/><circle class="cls-2" cx="816.53" cy="440.81" r="8.21"/><circle class="cls-2" cx="629.88" cy="464.89" r="8.21"/><circle class="cls-2" cx="663.82" cy="464.89" r="8.21"/><circle class="cls-2" cx="697.76" cy="464.89" r="8.21"/><circle class="cls-2" cx="731.69" cy="464.89" r="8.21"/><circle class="cls-2" cx="765.63" cy="464.89" r="8.21"/><circle class="cls-2" cx="799.56" cy="464.89" r="8.21"/><path class="cls-2" d="M836.61,457.29q-1.67,7.89-3.32,15.8a8.21,8.21,0,1,1,3.32-15.8Z"/><path class="cls-2" d="M612.92,479.67a8.13,8.13,0,0,1,5.64,2.25h0q-4.83,6.75-9.66,13.11a8.21,8.21,0,0,1,4-15.37Z"/><circle class="cls-2" cx="646.85" cy="487.88" r="8.21"/><circle class="cls-2" cx="680.79" cy="487.88" r="8.21"/><circle class="cls-2" cx="714.72" cy="487.88" r="8.21"/><circle class="cls-2" cx="748.66" cy="487.88" r="8.21"/><circle class="cls-2" cx="782.59" cy="487.88" r="8.21"/><circle class="cls-2" cx="816.53" cy="487.88" r="8.21"/><circle class="cls-2" cx="632.07" cy="513.06" r="8.21"/><path class="cls-2" d="M600.24,506.07c-3.54,4.36-7.06,8.49-10.52,12.34A8.21,8.21,0,0,1,596,504.85,8,8,0,0,1,600.24,506.07Z"/><circle class="cls-2" cx="663.82" cy="513.06" r="8.21"/><circle class="cls-2" cx="697.76" cy="513.06" r="8.21"/><circle class="cls-2" cx="731.69" cy="513.06" r="8.21"/><circle class="cls-2" cx="765.63" cy="513.06" r="8.21"/><circle class="cls-2" cx="799.56" cy="513.06" r="8.21"/><circle class="cls-2" cx="595.95" cy="464.89" r="8.21"/><circle class="cls-2" cx="578.98" cy="487.88" r="8.21"/><circle class="cls-2" cx="562.01" cy="513.06" r="8.21"/><circle class="cls-2" cx="545.05" cy="536.05" r="8.21"/><circle class="cls-2" cx="562.01" cy="464.89" r="8.21"/><circle class="cls-2" cx="545.05" cy="487.88" r="8.21"/><circle class="cls-2" cx="528.08" cy="513.06" r="8.21"/><circle class="cls-2" cx="511.11" cy="536.05" r="8.21"/><circle class="cls-2" cx="528.08" cy="464.89" r="8.21"/><circle class="cls-2" cx="511.11" cy="487.88" r="8.21"/><circle class="cls-2" cx="494.14" cy="513.06" r="8.21"/><path class="cls-2" d="M485.39,536a8.18,8.18,0,0,1-3.7,6.86c-3.77-.71-7.56-1.48-11.33-2.28a8.21,8.21,0,1,1,15-4.58Z"/><path class="cls-2" d="M502.36,464.89a8.21,8.21,0,0,1-16.42,0,8,8,0,0,1,.49-2.78L501,460.45A8.13,8.13,0,0,1,502.36,464.89Z"/><circle class="cls-2" cx="477.17" cy="487.88" r="8.21"/><circle class="cls-2" cx="460.21" cy="513.06" r="8.21"/><path class="cls-2" d="M451.45,536a2.81,2.81,0,0,1,0,.29c-5.24-1.26-10.44-2.58-15.54-3.94A8.2,8.2,0,0,1,451.45,536Z"/><path class="cls-2" d="M468.42,464.89a8.21,8.21,0,0,1-16.35,1l16.31-1.78A6.56,6.56,0,0,1,468.42,464.89Z"/><circle class="cls-2" cx="443.24" cy="487.88" r="8.21"/><circle class="cls-2" cx="426.27" cy="513.06" r="8.21"/><path class="cls-2" d="M433.94,467.82a8.2,8.2,0,0,1-14.58,1.48C424.16,468.82,429,468.33,433.94,467.82Z"/><circle class="cls-2" cx="409.3" cy="487.88" r="8.21"/><path class="cls-2" d="M400.55,513.06a8.19,8.19,0,0,1-4.83,7.47c-3.7-1.21-7.25-2.41-10.62-3.58a8.21,8.21,0,1,1,15.45-3.89Z"/><circle class="cls-2" cx="375.37" cy="487.88" r="8.21"/><circle class="cls-2" cx="646.85" cy="536.05" r="8.21"/><circle class="cls-2" cx="680.79" cy="536.05" r="8.21"/><circle class="cls-2" cx="714.72" cy="536.05" r="8.21"/><circle class="cls-2" cx="748.66" cy="536.05" r="8.21"/><circle class="cls-2" cx="782.59" cy="536.05" r="8.21"/><path class="cls-2" d="M821.9,529.84c-.92,4.8-1.81,9.46-2.65,13.94a7.94,7.94,0,0,1-2.72.48,8.22,8.22,0,1,1,5.37-14.42Z"/><path class="cls-2" d="M638.1,560.13a8.19,8.19,0,0,1-7.15,8.13c-.81-5.18-1.64-10.62-2.47-16.21a7.32,7.32,0,0,1,1.41-.13A8.22,8.22,0,0,1,638.1,560.13Z"/><circle class="cls-2" cx="663.82" cy="560.13" r="8.21"/><circle class="cls-2" cx="697.76" cy="560.13" r="8.21"/><circle class="cls-2" cx="731.69" cy="560.13" r="8.21"/><circle class="cls-2" cx="765.63" cy="560.13" r="8.21"/><circle class="cls-2" cx="799.56" cy="560.13" r="8.21"/><circle class="cls-2" cx="646.85" cy="583.12" r="8.21"/><circle class="cls-2" cx="680.79" cy="583.12" r="8.21"/><circle class="cls-2" cx="714.72" cy="583.12" r="8.21"/><circle class="cls-2" cx="748.66" cy="583.12" r="8.21"/><circle class="cls-2" cx="782.59" cy="583.12" r="8.21"/><path class="cls-2" d="M813.57,575.46c-.92,5.51-1.67,10.25-2.19,14a8.21,8.21,0,0,1,2.19-14Z"/><path class="cls-2" d="M672,608.29a8.2,8.2,0,0,1-4.85,7.49h0c-2.91-.31-5.74-.69-8.5-1.09a8.21,8.21,0,1,1,13.36-6.4Z"/><circle class="cls-2" cx="697.76" cy="608.3" r="8.21"/><circle class="cls-2" cx="731.69" cy="608.3" r="8.21"/><path class="cls-2" d="M773.84,608.29a8.23,8.23,0,0,1-1.53,4.78c-3.76.6-7.7,1.16-11.79,1.65h0a8.21,8.21,0,1,1,13.33-6.43Z"/><path class="cls-2" d="M806.16,603.41c-3.3,2.07-8.37,4-14.76,5.72a7.75,7.75,0,0,1,0-.84,8.2,8.2,0,0,1,14.8-4.88Z"/></g><path id="SHADOW" class="cls-11" d="M620.6,484.87C649.85,446,667.3,408,684.28,374.44"/></g><path id="HAND" class="cls-6" d="M292.64,471.17c9.72-2.09,43.91-1.91,61.41,2.84l-3.31,29s-16.46,8.06-27.33,3.59-19.07-13.27-26.81-10.86-17.26,8.51-21.91,7.4a49.16,49.16,0,0,1-15.62-6.47C260.92,493.27,280.66,474.88,292.64,471.17Z"/><g id="HEAD"><path id="NECK" class="cls-6" d="M708.75,184.19c2.71,10.86,13.57,57.93,13.57,65.17s74.71-1.14,89.19-13.81c0,0-29.45-32.82-36.69-82.14Z"/><path id="HEAD-2" data-name="HEAD" class="cls-6" d="M765.65,158.46S742.86,206,695.51,202.21a9.6,9.6,0,0,1-7.65-4.92c-6.5-11.8-23.74-45-23.11-64.71.78-24.21,11.08-69.1,11.08-69.1S733.49,51.54,765.5,105C783.43,135,765.65,158.46,765.65,158.46Z"/><g id="GLASSES"><line class="cls-11" x1="724.03" y1="115.52" x2="640.28" y2="115.52"/><ellipse class="cls-11" cx="649.15" cy="124.39" rx="8.21" ry="22.76"/></g><g id="HAIR"><path class="cls-7" d="M874.93,204.49S808.48,223.7,719,229.55c0,0-31.15-32.26,4.74-72.07,20.52-22.76-4.63-51.61-4.63-51.61-28.75-9-62.91-10-62.91-10-11.41-16.77-11.72-40.58,20-64.09,32.86-24.32,97.25-48.61,135.25-10.1,21.77,22,7,66.1,34.86,79.48C934,143.17,874.93,204.49,874.93,204.49Z"/><path class="cls-12" d="M686.11,31.74C719,7.42,783.36-16.87,821.36,21.64c21.77,22,9.18,73.76,37,87.14"/><path class="cls-12" d="M648.55,95.83c-11.41-16.77-6.63-45.51,28.81-63"/><path class="cls-12" d="M704,229.41s-26.78-34.24,11.66-71.6c22-21.36,3.15-56.18,3.15-56.18"/></g></g></g><g id="CHAIR"><path class="cls-13" d="M991.13,443.14c-5.31,20-76.4,149-83.45,331.15a98,98,0,0,1-97.88,94.27H489.07c-10.91,0-18.33,4.38-23,11.49a3.38,3.38,0,0,1-6.16-1.91V861.55c0-22,17.89-43.88,39.93-43.82l97.92.08c43.84.13,69.79-30.54,71.45-74.35,6.12-161.8,58.16-264.21,81.74-297.37a45.27,45.27,0,0,1,36.9-19H983C991.24,427.1,993.25,435.15,991.13,443.14Z"/><path class="cls-14" d="M988.39,441.94H797.61a43,43,0,0,0-35.05,18c-22.48,31.62-70.41,160.27-76.28,305.9a68.56,68.56,0,0,1-68.54,65.74H496.42a36.52,36.52,0,0,0-36.52,36.52"/><rect class="cls-15" x="659.85" y="934.17" width="35" height="322.12"/><path class="cls-14" d="M602.43,1290.86c0-18.87,14.1-34.17,31.49-34.17h87c17.39,0,31.5,15.3,31.5,34.17"/><circle class="cls-13" cx="750.43" cy="1306.36" r="24.54"/><circle class="cls-13" cx="605.43" cy="1306.36" r="24.54"/><path class="cls-13" d="M639,869.14h76.67a0,0,0,0,1,0,0v48.08a27.59,27.59,0,0,1-27.59,27.59H666.61A27.59,27.59,0,0,1,639,917.21V869.14A0,0,0,0,1,639,869.14Z"/><path class="cls-14" d="M535.36,1290.68a34,34,0,0,1,34-34h227a34,34,0,0,1,34,34"/><circle class="cls-13" cx="528.43" cy="1306.36" r="24.54"/><circle class="cls-13" cx="834.43" cy="1306.36" r="24.54"/></g></g></g></g></svg>