<svg xmlns="http://www.w3.org/2000/svg" viewBox="0 0 810.1 1285.16"><defs><style>.cls-1{fill:#3f4d90;}.cls-10,.cls-12,.cls-2{fill:none;}.cls-2{stroke:#d2aa92;}.cls-12,.cls-13,.cls-2{stroke-linecap:round;stroke-width:6px;}.cls-10,.cls-11,.cls-12,.cls-13,.cls-2{stroke-miterlimit:10;}.cls-3{fill:#d2aa92;}.cls-4{fill:#d8baa3;}.cls-5{fill:#ffb000;}.cls-6{fill:#ffcfc9;}.cls-7{fill:#fab6ad;}.cls-8{fill:#f0e1d4;}.cls-9{fill:#475ca9;}.cls-10{stroke:#475ca9;stroke-width:4px;}.cls-11,.cls-13{fill:#fff;}.cls-11,.cls-12,.cls-13{stroke:#ffb000;}.cls-11{stroke-width:5px;}</style></defs><g id="Layer_2" data-name="Layer 2"><g id="Слой_1" data-name="Слой 1"><g id="_3" data-name="3"><g id="LEGS"><g id="RIGHT"><g id="SHOE"><path class="cls-1" d="M517.43,1174.45c1.93,14.69-19.66,40.53-19.66,54.61,0,5.17,19.68,12.18,38,21.18,22.42,11,44,23.76,51.76,23.76h50.08s.06-28.93-28.25-33.44c-30.47-4.86-46.77-67-46.77-67Z"/><path class="cls-2" d="M496.51,1231c22.42,11,83.2,44.07,91,44.07h50.08"/><line class="cls-2" x1="567.99" y1="1224.14" x2="586.23" y2="1217.04"/><line class="cls-2" x1="557.79" y1="1212.92" x2="580.12" y2="1204.8"/></g><path id="PANT" class="cls-3" d="M421.24,655.2s193.71-7,276,43.71c36.18,22.3-121.72,481.73-121.72,481.73s-51.43.86-78.85-12.86c0,0-37-253,54.74-353.07,0,0-212.1,29.5-306.61-37.79Z"/></g><g id="LEFT"><g id="SHOE-2" data-name="SHOE"><path class="cls-1" d="M658.13,1181.59c1.93,14.69-18.65,40.53-18.65,54.61,0,5.17,18.67,12.18,36.95,21.18,22.43,11,44,23.76,51.76,23.76h50.09s.05-28.93-28.25-33.44c-30.48-4.87-46.77-67-46.77-67Z"/><path class="cls-2" d="M638.22,1238.09c22.42,11,82.18,44.07,90,44.07h50.09"/><line class="cls-2" x1="717.86" y1="1228.21" x2="726.93" y2="1224.17"/><line class="cls-2" x1="707.66" y1="1217" x2="720.81" y2="1211.94"/></g><path id="PANT-2" data-name="PANT" class="cls-4" d="M216.59,791.27C333,881.49,615.81,842.92,615.81,842.92s-52.29,92,24.86,345.76c0,0,36,6,73.71,0,0,0,5.15-190.62,32.58-395.32,5.17-38.6-132-98.73-342-106.87Z"/></g></g><g id="HEAD"><path id="HAIR" class="cls-5" d="M162.71,160.2c-8.93-9.51-46.86-68.77-27.16-113.83S198.9-6.11,225.88,4c0,0,24.36-9.67,60.43,24.34,34.69,32.72,54.23,73.44,38,98.35-20.44,31.4-27.15,30.42-36.92,43.27-8.66,11.37-30.51,41.54-59.48,26.16C196.05,179.16,162.71,160.2,162.71,160.2Z"/><g id="NECK"><path class="cls-6" d="M172.62,146.94C152.53,183.19,132,206.58,132,206.58l82.88,38.27s13.69-41.35,20.27-55c4.58-9.54-31.28-35.57-43-60-6.59-13.73-12.78-16.21-15.6-14.76C160.77,123.12,172.62,146.94,172.62,146.94Z"/><path class="cls-7" d="M187.66,147.44c-.74,3.22-2.91,20.62,7.31,28.75,6.37,5.07,21.53,14.5,36.65,21.58-3.42,8.15-7.52,19.79-10.79,28.5-13.44-8.4-30.1-22.62-34.74-43.87C181.23,160.1,187.66,147.44,187.66,147.44Z"/></g><path id="HEAD-2" data-name="HEAD" class="cls-6" d="M187.67,147.44c-.75,3.22-2.92,20.62,7.3,28.75s43.1,27.49,62.09,30.41,40.54-52.59,42-74.14,7.77-76.7-36.15-76.7C243.58,55.76,191.32,131.73,187.67,147.44Z"/></g><g id="SHIRT"><path class="cls-8" d="M405,686.49s13.71-15,16.29-31.29c0,0-120.83-92.15-177.87-372l-6.05-.53S228.8,508.41,405,686.49Z"/><path class="cls-1" d="M243.26,282.73c41.33,22.2,114.55,166.32,114.55,166.32l-65.72,70.36C336.71,608,405,686.49,405,686.49,345.8,766.2,216.59,791.27,216.59,791.27S52.66,658.84,52.66,428.69c0-122.33,40.74-165.07,51-179.22Z"/><path class="cls-9" d="M96.33,248.05s75.47,29.57,147,35.14c0,0-.85-29.14-7.5-35.14S146.79,201.81,130.5,204.6,96.33,248.05,96.33,248.05Z"/></g><g id="HAND"><line class="cls-10" x1="211.23" y1="456.34" x2="292.09" y2="519.41"/><path class="cls-11" d="M660.42,503.93A43.9,43.9,0,0,0,698.53,474l54.91-165.23c5.56-16.72,20.49-29.39,38-30.82l-88.32,7.22c-17.55,1.43-32.48,14.1-38,30.82l-54.9,165.23c-5.56,16.72-17,28.21-34.56,29.64Z"/><path class="cls-11" d="M663.18,510.2a43.92,43.92,0,0,0,40.15-27.13l66.59-160.88a44,44,0,0,1,40.16-27.13l-88.61.89a43.94,43.94,0,0,0-40.16,27.12L614.72,484a43.91,43.91,0,0,1-40.15,27.12Z"/><path class="cls-6" d="M329.24,542.5S348,565.11,393.08,565c21.62,0,196.09-130.84,196.09-130.84s45.78-5.11,58.56-13.88,35.27-55.88,33.44-62.82a20.16,20.16,0,0,0-17.56,12.66c-4.68,10.91-22.43,11.69-22.43,11.69L645,368.52s-16.64,2.35-29.3,2.84-30,31.17-33.12,32.38S395,474.35,384.49,481.42,329.24,542.5,329.24,542.5Z"/><path class="cls-9" d="M387.92,475.77c2.74-3.43-22.11-26.86-30.11-26.72s-72.43,64.85-67,76.85,25.57,28.69,35.14,21.28S387.92,475.77,387.92,475.77Z"/></g><g id="CHAIR"><path class="cls-12" d="M3,440.91S34.66,730.69,212.09,817.66c107.28,52.58,225.83,59.52,302.81,56.78"/><path class="cls-12" d="M44.28,605.53h97.24a204.47,204.47,0,0,1,201.7,170.88L357.81,864"/><path class="cls-12" d="M377.85,867.24V1109a41.69,41.69,0,0,1-20.66,36l-52.44,30.65a41.7,41.7,0,0,0-20.66,36"/><circle class="cls-13" cx="284.46" cy="1246.33" r="22.29"/><path class="cls-12" d="M263.91,1220.46a29.07,29.07,0,0,1,41.11,0"/><path class="cls-12" d="M392,869.82V1109a41.71,41.71,0,0,0,20.66,36l52.45,30.65a41.71,41.71,0,0,1,20.65,36"/><circle class="cls-13" cx="485.38" cy="1246.33" r="22.29"/><path class="cls-12" d="M505.93,1220.46a29.07,29.07,0,0,0-41.11,0"/></g></g></g></g></svg>