<svg xmlns="http://www.w3.org/2000/svg" viewBox="0 0 876.94 1303.63"><defs><style>.cls-1{fill:#fff;}.cls-1,.cls-2,.cls-3,.cls-8,.cls-9{stroke:#d8baa3;}.cls-1,.cls-10,.cls-11,.cls-13,.cls-14,.cls-2,.cls-3,.cls-9{stroke-miterlimit:10;}.cls-1,.cls-2,.cls-3{stroke-width:6px;}.cls-2,.cls-7{fill:#f0e1d4;}.cls-10,.cls-11,.cls-13,.cls-14,.cls-3,.cls-8,.cls-9{fill:none;}.cls-4{fill:#722d54;}.cls-5{fill:#b65a18;}.cls-6{fill:#c36f0b;}.cls-10,.cls-14,.cls-8,.cls-9{stroke-linecap:round;}.cls-8{stroke-linejoin:round;}.cls-13,.cls-8,.cls-9{stroke-width:5px;}.cls-10{stroke:#b65a18;}.cls-10,.cls-11{stroke-width:3px;}.cls-11{stroke:#ffb000;}.cls-12{fill:#ffb000;}.cls-13{stroke:#f0e1d4;}.cls-14{stroke:#3f4d79;stroke-width:4px;}.cls-15{fill:#3f4d79;}</style></defs><g id="Layer_2" data-name="Layer 2"><g id="Слой_1" data-name="Слой 1"><g id="_1" data-name="1"><g id="CHAIR"><path class="cls-1" d="M356.28,914.05h-261A92.28,92.28,0,0,1,3,821.77V668.14a38.57,38.57,0,0,1,38.57-38.57h197A25.39,25.39,0,0,1,264,655V821.77a92.28,92.28,0,0,0,92.28,92.28Z"/><path class="cls-2" d="M395.87,894.45h0a19.6,19.6,0,0,1-19.59,19.6h-281A92.28,92.28,0,0,1,3,821.77V668.14a38.57,38.57,0,0,1,38.57-38.57h3A38.44,38.44,0,0,0,33,657.14V810.77a92.09,92.09,0,0,0,4.7,29.14,51.13,51.13,0,0,0,48.53,35h290A19.59,19.59,0,0,1,395.87,894.45Z"/><path class="cls-1" d="M147.1,914H289.56a0,0,0,0,1,0,0v17.43a14.16,14.16,0,0,1-14.16,14.16H161.25a14.16,14.16,0,0,1-14.16-14.16V914A0,0,0,0,1,147.1,914Z"/><rect class="cls-2" x="203.33" y="945.63" width="30" height="240.22"/><rect class="cls-1" x="189.33" y="1185.85" width="58" height="61.97" rx="12.24"/><path class="cls-3" d="M85.55,1303.63a55.81,55.81,0,0,1,55.81-55.81H295.3a55.81,55.81,0,0,1,55.81,55.81"/><path class="cls-3" d="M166.68,1303.63v-24.77a31,31,0,0,1,31-31H239a31,31,0,0,1,31,31v24.77"/></g><g id="WOMAN"><path id="SKIRT" class="cls-4" d="M131.69,629.81S3.8,813.06,136,860.3c75.81,27.1,217.54,28.61,324.65,25A195.49,195.49,0,0,0,640.76,747.49l3.91-12.66s-21.73-74.74-355.92-105.27C288.75,629.56,218.15,643.83,131.69,629.81Z"/><g id="LEGS"><g id="RIGHT"><path id="SHOE" class="cls-4" d="M876.94,1303.63H802.81c-9.23,0-27-37.38-33.41-37.06s-12.08,37.06-12.08,37.06h-5.7c-25.48-73,9.27-85.89,9.27-85.89l.2.13c6.65,35,55.92,42,66,43.08l1.8,1.17s23.54,23.54,35,25.13S876.94,1303.63,876.94,1303.63Z"/><path id="LEG" class="cls-5" d="M637.06,727.61c46.08,14.11,68.72,333.36,191.84,534.51,0,0-61.56-4.3-68-44.38,0,0-186.88-188.26-191.87-300.65S608.72,718.93,637.06,727.61Z"/></g><g id="LEFT"><path id="SHOE-2" data-name="SHOE" class="cls-4" d="M677,1303.63H602.89c-9.23,0-27-37.38-33.4-37.06s-12.09,37.06-12.09,37.06h-5.7c-25.48-73,9.27-85.89,9.27-85.89l.15.1.06.19c-11.47,36.24,63.92,45.36,69.79,46,5.91,5.68,23.56,21.9,33,23.21C675.43,1288.84,677,1303.63,677,1303.63Z"/><path id="LEG-2" data-name="LEG" class="cls-6" d="M561.18,1218S485,977.62,505.36,883.39c24.8-114.71,91.57-176.78,123.54-155.78S574.06,1071.77,605.8,1218c3.91,18,25.53,46,25.53,46S549.25,1255.73,561.18,1218Z"/></g></g><g id="BLOUSE"><path class="cls-7" d="M290.75,268.24s3.57,59.78,63.09,166.25c25.27,45.21-27.84,76-29.33,81.44s-33.76,118.63-33.76,118.63-69,20.85-161.32,0c0,0-27.3-270.44-9.93-310.23,15.39-35.24,90.35-78.43,90.35-78.43S245.09,268.73,290.75,268.24Z"/><path class="cls-8" d="M186.63,264.21c30.89,43.11,64.91,34.8,64.91,34.8l21.8-28.69s13.42,27.05,21.89,33"/><path class="cls-9" d="M221.84,480.28c21.09,36.93,70.54,22,70.54,22"/></g><g id="HAND"><path class="cls-6" d="M440.39,611.56a7.41,7.41,0,0,1-9.13-.83c-2.91-2.51-7.86-8.52-11.85-11.81a181.45,181.45,0,0,1,7.65,18.36,60.19,60.19,0,0,1-19.11-1c-5.28-1.06-12-11.05-18.75-16.81s-19.38-1.2-32.67-1.89S332,578.85,332,578.85s-212.76,47.74-246.22,12c-8.24-8.79-11.84-17.14-11.24-24.52-2.39-26.64.27-60.86,5.56-93.53,17.37,6.1,49.13,16.08,80.88,20.09-2.72,17.19-5.53,32.84-7.67,44.21C186,539.57,322.36,550,341.18,553.24c20.18,3.44,60.53,23.59,67.42,26.61,5.84,2.07,16.47,11.25,19.74,14.71S440.39,611.56,440.39,611.56Z"/><path class="cls-5" d="M161,492.88c-.51,3.26-1,6.46-1.55,9.58-36-5.54-68.22-1.37-83.47,1.41,1.07-10.32,2.48-20.78,4.15-31.08C97.46,478.89,129.21,488.87,161,492.88Z"/><path class="cls-7" d="M133,304.52C113,323.09,87.93,389.85,66.59,467.78c0,0,51.43,20.85,100.57,25.81,0,0,22.83-102.25,22.33-154.87S159.43,280.06,133,304.52Z"/><path class="cls-9" d="M168.09,493.59s8.78-36.63,17.56-81.42"/><path class="cls-10" d="M420.57,615.19S408.21,593.31,404,591c-7.36-4.13-17-9.56-17-9.56"/><path class="cls-10" d="M411.91,614.74s-10.94-18-15.12-20.35c-7.36-4.13-17-9.56-17-9.56"/></g><g id="HEAD"><g id="NECK"><path class="cls-6" d="M238.14,172.44s4.47,46.66-28.29,73.46c0,0,41.69,27.8,80.9,22.34l13.9-59.07Z"/><path class="cls-5" d="M304.66,209.17l-13.9,59.07-1.72.21c-45.1-21.36-50.27-74.9-50.83-84.81a84.34,84.34,0,0,0-.07-11.2Z"/></g><path id="HEAD-2" data-name="HEAD" class="cls-6" d="M238.14,172.44s6.73,61.05,84.17,70.73c0,0,38.34-22.72,33.89-97.31-3.6-60.43-72.61-74.72-98.67-41.21S238.14,172.44,238.14,172.44Z"/><g id="HAIR"><path class="cls-11" d="M334.16,60.68c19.13,4.14,61.48,29.17,40.37,81"/><path class="cls-11" d="M239.57,59.48S257.25,15.8,225.83,1.36"/><path class="cls-11" d="M292.9,131.94c-17.2-11-24.45-33.67-22.22-42.09"/><path class="cls-12" d="M237.26,188.93s-47.76-23.87-38.78-81.44a65.2,65.2,0,0,1,3.37-12.61c-7.13.4-35.47-.1-47.95-31.47C141.58,32.48,168.84-8.54,215.62,5.07c22.51,6.55,23.81,36.82,23.37,49.16a56,56,0,0,1,7.34-2.47c31.26-8.08,78.19,1.79,94.35,10,17.46,8.87,50,40.53,18.54,84.78a43.3,43.3,0,0,1-2.82,3.57c0-1.4-.12-2.81-.2-4.25a74.26,74.26,0,0,0-1.58-11.56c-18.63-5.64-39.42-3.56-51.23-2.68-15.25-9.34-25.85-28.35-31.5-38.88-1.18.61-2.33,1.28-3.44,2,0,0-.75,42.78-31,70.16a53.8,53.8,0,0,0,.71,7.54Z"/></g><g id="GLASSES"><circle class="cls-13" cx="348.04" cy="161.82" r="21.17"/><circle class="cls-13" cx="295.25" cy="161.82" r="21.17"/><line class="cls-13" x1="326.88" y1="161.82" x2="316.41" y2="161.82"/><line class="cls-13" x1="274.08" y1="158.32" x2="247.45" y2="151.92"/></g><g id="HEADPHONES"><path class="cls-14" d="M237.16,153.52,254,53.94a22.8,22.8,0,0,1,26.47-18.43l36.35,6.93a8.69,8.69,0,0,1,6.87,10.1"/><path class="cls-14" d="M237,174.4l-.8,15.74c-.15,8.45,4.32,17.39,13.21,19l72,13.58"/><ellipse class="cls-15" cx="236.07" cy="162.33" rx="16.03" ry="19.08" transform="translate(-0.95 1.4) rotate(-0.34)"/><ellipse class="cls-15" cx="321.76" cy="223.52" rx="8.68" ry="7.29" transform="translate(-1.31 1.9) rotate(-0.34)"/></g></g></g><g id="LAPTOP"><path class="cls-1" d="M570.25,631.12h16.49a18.94,18.94,0,0,0,17.37-11.39l106.65-245a19,19,0,0,0-17.38-26.51h0Z"/><path class="cls-1" d="M271.4,658.24H559.79c13.24,0,24-12.14,24-27.12H295.37c-13.24,0-24,12.14-24,27.12Z"/></g></g></g></g></svg>