<svg xmlns="http://www.w3.org/2000/svg" viewBox="0 0 909.17 1250.96"><defs><style>.cls-1,.cls-12,.cls-15{fill:#fff;}.cls-1,.cls-10{stroke:#ffb000;}.cls-1,.cls-10,.cls-11,.cls-13,.cls-15,.cls-2,.cls-6{stroke-miterlimit:10;}.cls-1,.cls-10,.cls-2,.cls-6{stroke-width:5px;}.cls-10,.cls-11,.cls-13,.cls-2,.cls-6{fill:none;}.cls-15,.cls-2{stroke:#6562cf;}.cls-3{fill:#ffcfc9;}.cls-4{fill:#3f4d79;}.cls-5{fill:#6562cf;}.cls-6{stroke:#fff;}.cls-7{fill:#eaeeff;}.cls-8{fill:#ffc0b7;}.cls-9{fill:#ffb000;}.cls-11{stroke:#ffb0af;stroke-linecap:round;stroke-width:3px;}.cls-13{stroke:#000;}.cls-14{fill:#e2e2ff;}.cls-15{stroke-width:6px;}</style></defs><g id="Layer_2" data-name="Layer 2"><g id="Слой_1" data-name="Слой 1"><g id="_2" data-name="2"><g id="CHAIR"><path class="cls-1" d="M736.46,798.28a20,20,0,0,1-20,20H405.62a20,20,0,1,1,0-40H716.46A20,20,0,0,1,736.46,798.28Z"/><path class="cls-1" d="M508.24,818.28h117a14.16,14.16,0,0,1,14.16,14.16V850.5a0,0,0,0,1,0,0H494.09a0,0,0,0,1,0,0V832.43A14.16,14.16,0,0,1,508.24,818.28Z" transform="translate(1133.52 1668.78) rotate(-180)"/><rect class="cls-1" x="551.46" y="850.5" width="30.61" height="245.08" transform="translate(1133.52 1946.08) rotate(-180)"/><rect class="cls-1" x="537.17" y="1095.58" width="59.17" height="63.22" rx="12.24" transform="translate(1133.52 2254.38) rotate(-180)"/><path class="cls-2" d="M702.23,1215.74a56.94,56.94,0,0,0-56.94-56.94H488.23a56.94,56.94,0,0,0-56.94,56.94"/><circle class="cls-1" cx="703.26" cy="1222.51" r="22.81"/><circle class="cls-1" cx="429.85" cy="1222.51" r="22.81"/><circle class="cls-1" cx="567.58" cy="1222.51" r="22.81"/></g><g id="WOMAN"><g id="LEGS"><g id="LEFT_LEG" data-name="LEFT LEG"><path class="cls-3" d="M270.23,1126.39c-10.18,24.15-19.45,43.95-26.52,56.94-5.26,9.66-14.42,66-62.58,43.3-1.7-.8,19-6.14,25.53-52.75q3.43-24.51,6.29-47.28C231.79,1127.88,255.69,1127.1,270.23,1126.39Z"/><path id="SHOE" class="cls-4" d="M259.82,1249.33s19.39-67.1-6.54-77.34c-8.28-3.27-18.32,5-21,33.24-2.35,24.69-38.42,28.52-41.82,12.56,0,0-44.22,9-44.22,31.54Z"/><path class="cls-5" d="M283.32,1125.63s-53.56,3.83-81.73-.18c0,0-37.4-390.15-31.81-430.29,6.73-48.29,167.49-91.09,250.6-104.66l15.31-69.34s112.44-2,175.93-2c0,0,68,121,61,201S519,782,323.19,782C323.19,782,382.89,902.51,283.32,1125.63Z"/></g><g id="RIGHT_LEG" data-name="RIGHT LEG"><path class="cls-3" d="M446.48,1128.29a231.91,231.91,0,0,1-44.76-.36c5,19.45,9.62,38,13.29,54.57,2.37,10.64-12.86,25-17.2,35.45l.34-.16c20-3.19,46.83,15.75,44.07-13.81S443.7,1167.05,446.48,1128.29Z"/><path id="SHOE-2" data-name="SHOE" class="cls-4" d="M441.62,1182.23c6.88,0,18.06,12.44,16.95,32.36a116.12,116.12,0,0,1-7.3,34.74H373.94c1.36-21.45,24.21-31.54,24.21-31.54,20-3.19,45.83,15.75,43.07-13.81Z"/><path class="cls-5" d="M502.16,628s-170.43,30.8-189.79,81.85,70.95,415.75,70.95,415.75c52.36,8,79.22,0,79.22,0C517,875.84,453.19,793,453.19,793c126.91-5.39,207,6.65,219.44-72.78C676.6,695,648.24,598.53,502.16,628Z"/><path class="cls-6" d="M499.16,628s-170.43,30.8-189.79,81.85,70.95,415.75,70.95,415.75"/></g></g><g id="LEFT_HAND" data-name="LEFT HAND"><path class="cls-7" d="M461.69,464.58c10.13-22.9-34.84-53-80.86-41,0,0,15.52-184.68,51.89-207.95,35.3-22.58,43.8,83.77,45,109.74C477.68,325.37,484.21,425.84,461.69,464.58Z"/><path class="cls-8" d="M457.73,470.15c22.29-20-23.8-60.7-76.9-46.57-33.22,5.16-162.36,32.69-174.5,39-11.86,5.29-46.11,22.52-50.47,27.75-5.5,6.6-6.34,24.06-6,26.36s4.85,14.27,4.85,14.27,8.65-.89,7.55-10.3C160.94,509.47,170.9,506,177.56,503c2.78-1.24,10-.73,11.27,3.48s-9.26,9.31-11,12.36c-2.59,4.62.41,9.79.47,9.9s16.06-8.62,19.15-10.26c2.84-1.51,16.19-17.09,21.85-30.82C219.34,487.65,418.6,505.31,457.73,470.15Z"/></g><g id="HAIR"><path class="cls-9" d="M433,116.26c-3.75-9.11-19.29-56.25,5.89-76.61s58.39-41.25,98.57-38S588.84,58.4,611.61,67s50.55-1.6,76.8,22-1,60.75,25.75,80.58,52.53-5.26,79.33,29.78c30.72,40.18-14.15,86.61,29.46,90.61,48.22,4.42,77.31,86.06,56.61,140.25H628.38C468,405.44,433,116.26,433,116.26Z"/><path class="cls-10" d="M450.31,36.83C474.79,15.14,503.25.71,543.51,2.68s55.74,46.82,78.78,54.86,52.09-3.31,79.12,20,1,64.72,28.45,84.15,52.32-7.11,80.28,27.92c32.07,40.17-11.22,86,32.5,88.66,48.34,2.95,79.94,64.07,55.66,133.37"/></g><g id="BLOUSE"><path class="cls-7" d="M434.93,520.46S420.69,404.4,413.16,398.32c-16.91-13.66-30.36-33.25-23.31-60.3,4-15.27,36.15-116.49,43-122.92s51.8-22.5,51.8-22.5h127c14.46,4.82,59.86,21.15,70.71,37.77,53,81.16,69.95,211.34,69.95,211.34h-65.9s-31.72-71.19-43-72S611,519.46,611,519.46,538.75,539.51,434.93,520.46Z"/><path class="cls-6" d="M433.93,520.46S419.69,404.4,412.16,398.32c-16.91-13.66-31.36-34.25-24.31-61.3"/><path class="cls-6" d="M524,206.7S465.5,318.32,480,530.46"/><circle class="cls-6" cx="517.01" cy="293.49" r="7.71"/><circle class="cls-6" cx="506.44" cy="350.03" r="7.71"/><circle class="cls-6" cx="500.79" cy="406.77" r="7.71"/></g><g id="RIGHT_HAND" data-name="RIGHT HAND"><path class="cls-3" d="M745,473.36c-32.63,34.31-243.59-11.57-243.59-11.57s-11,17.38-23.88,18-25.07-3.93-31.61,1.59-13.14,15.13-18.26,16.12a58.21,58.21,0,0,1-18.48.78,175.54,175.54,0,0,1,7.54-17.7c-3.89,3.15-8.72,8.93-11.55,11.34a7.17,7.17,0,0,1-8.84.73s8.45-12.9,11.78-16.35,13.54-12.11,19.2-14.08c6.69-2.86,45.86-22.05,65.41-25.23,20.73-3.36,188.61-14.66,188.61-14.66C742.05,422.29,772.4,444.56,745,473.36Z"/><path class="cls-11" d="M415.49,496.27s12.12-21.07,16.18-23.3c7.15-3.94,16.48-9.12,16.48-9.12"/><path class="cls-11" d="M423.87,495.89s10.71-17.33,14.77-19.56c7.15-3.94,16.48-9.12,16.48-9.12"/></g><g id="NECK"><path class="cls-3" d="M536.08,114.69s17.67,55.41,75.53,77.91c0,0-81.16,35.36-127,0V116.29Z"/><path class="cls-8" d="M496.33,199.81a66.48,66.48,0,0,1-11.68-7.21V116.29l51.43-1.6s.5,1.56,1.6,4.27C542.93,142.35,528.73,190.88,496.33,199.81Z"/></g><path id="HEAD" class="cls-3" d="M534.73,123.22c-.53,18.22-34.82,61.08-53.57,61.08-15.54,0-44.55-46.87-48.21-68C429.2,94.56,433,56,464,55.46,483.16,55.13,493,73.13,498.75,94c7,25.19,28.48,19.54,28.48,19.54s6.15-14,14.72-7S534.73,123.22,534.73,123.22Z"/></g><g id="TABLE"><polyline class="cls-10" points="36.62 1249.33 86.62 560.5 136.62 1250.78"/><path class="cls-12" d="M32.23,560.5H690.56A15.52,15.52,0,0,0,706.08,545h0a15.52,15.52,0,0,0-15.52-15.52H32.23Z"/><path class="cls-10" d="M32.23,560.5H690.56A15.52,15.52,0,0,0,706.08,545h0a15.52,15.52,0,0,0-15.52-15.52H32.23"/></g><g id="LAPTOP"><path class="cls-13" d="M293,295.32H27.33a18.19,18.19,0,0,0-17.06,24.46l67,182h311.1L319.07,313.51A27.78,27.78,0,0,0,293,295.32Z"/><path class="cls-12" d="M295.39,295.32H28.74c-12.33,0-20.89,13.07-16.63,25.4l58,168.41a18.19,18.19,0,0,0,17,12.65H385.39L320.82,314.22C316.9,302.86,306.75,295.32,295.39,295.32Z"/><path class="cls-14" d="M284.39,307.93H17.74A17.72,17.72,0,0,0,1.11,331.78l58,158.12a18.11,18.11,0,0,0,17,11.88H374.39L309.82,325.67A27.1,27.1,0,0,0,284.39,307.93Z"/><path class="cls-15" d="M76.65,501.78H585.51a26.75,26.75,0,0,1,26.75,26.75v0a0,0,0,0,1,0,0H103.4a26.75,26.75,0,0,1-26.75-26.75v0a0,0,0,0,1,0,0Z"/><path class="cls-2" d="M293,295.32H27.33a18.19,18.19,0,0,0-17.06,24.46l67,182h311.1L319.07,313.51A27.78,27.78,0,0,0,293,295.32Z"/><ellipse class="cls-9" cx="179.6" cy="413.39" rx="17.03" ry="21.01" transform="translate(-247.79 270.26) rotate(-48)"/><ellipse class="cls-2" cx="185.71" cy="407.03" rx="17.03" ry="21.01" transform="translate(-241.04 272.69) rotate(-48)"/></g></g></g></g></svg>