<svg xmlns="http://www.w3.org/2000/svg" viewBox="0 0 862.22 1252.12"><defs><style>.cls-1,.cls-11,.cls-12,.cls-13,.cls-3,.cls-7{fill:none;}.cls-1,.cls-11,.cls-2,.cls-3,.cls-7{stroke:#ffb000;}.cls-1,.cls-11,.cls-12,.cls-13,.cls-2,.cls-3,.cls-7{stroke-miterlimit:10;}.cls-1,.cls-12,.cls-2,.cls-3{stroke-width:5px;}.cls-2{fill:#fff;}.cls-12,.cls-13,.cls-3,.cls-7{stroke-linecap:round;}.cls-4{fill:#ffcfc9;}.cls-5{fill:#52509d;}.cls-6{fill:#3f4d79;}.cls-7{stroke-width:7px;}.cls-8{fill:#6562cf;}.cls-9{fill:#ffc0b7;}.cls-10{fill:#ffb000;}.cls-11,.cls-13{stroke-width:4px;}.cls-12{stroke:#fff;}.cls-13{stroke:#f7b3af;}</style></defs><g id="Layer_2" data-name="Layer 2"><g id="Слой_1" data-name="Слой 1"><g id="_2" data-name="2"><g id="COMPUTER"><path class="cls-1" d="M48.88,577.25H439.71a5.12,5.12,0,0,1,5.12,5.12v30.12a5.12,5.12,0,0,1-5.12,5.12H236.37v72.56"/><path class="cls-2" d="M95,35.25,75.55,177.72A187,187,0,0,0,91.41,282.29l28.43,60.59c18.89,40.26,51.5,71.71,91.43,88.18l85.84,35.41Z"/><path class="cls-1" d="M159.78,577.39H43.2c-26.49,0-45.91-26-39.45-52.85l54-182.73c5-20.82,22.94-35.41,43.5-35.41"/><path class="cls-2" d="M304.52,474.51h0a5.8,5.8,0,0,1-5.24-3.41L93.48,31.82c-1.9-4.05.93-8.77,5.24-8.77h0A5.82,5.82,0,0,1,104,26.46L309.76,465.74C311.66,469.79,308.83,474.51,304.52,474.51Z"/><circle class="cls-1" cx="176.06" cy="559.77" r="15.05"/><path class="cls-1" d="M161.06,561.79c-.27-9.18,5.78-16.8,15-17.07l1.46-.05a46,46,0,0,1,11.64,1.15L310.93,574"/></g><g id="CHAIR"><path class="cls-1" d="M859.8,425.6,763.13,781.8a85.31,85.31,0,0,1-82.33,63H353.36"/><line class="cls-3" x1="379.83" y1="844.76" x2="643.77" y2="1245.18"/><line class="cls-3" x1="668.77" y1="844.76" x2="380.83" y2="1249.18"/></g><g id="MAN"><g id="LEG"><path id="LEG-2" data-name="LEG" class="cls-4" d="M384.17,1108.53s-13.73,21-37.57,18.06l-16.12-23.07a282.86,282.86,0,0,0,48.62-15.14C380.74,1096.05,382.45,1103.08,384.17,1108.53Z"/><path id="PANTS" class="cls-5" d="M724,742.25c-9.66,21.63-41.84,77.83-115.86,80.16-91.76,2.89-260.58-5.77-260.58-5.77S386.17,969.2,387,1084.81c0,0-30.43,15.44-75.6,22.22,0,0-162-303-129.83-377.08,23.94-55.11,205.9-76.54,288.15-83.46C503.9,666.31,617.63,728.42,724,742.25Z"/><g id="SHOE"><path class="cls-6" d="M384.17,1108.53s16.68,18.34,35.09,32.9c11.66,9.22,7.08,27-2.85,41.94A545.28,545.28,0,0,1,366.83,1247s-25.83,2.73-76.1.67c0,0-1.88-17.84,15.89-25.9,40.5-18.37,49.62-67,40-95.13C346.6,1126.59,366.83,1130.2,384.17,1108.53Z"/><path class="cls-7" d="M427.19,1146.64c4.84,10.27-2.36,25.71-9.78,36.73,0,0-27.58,38.45-48.58,64.58l-79.1.67"/><path class="cls-3" d="M341.48,1208.33s-18.25-11.94-5-19.24"/><path class="cls-3" d="M351.48,1197.33s-22.25-11.94-9-19.24"/></g></g><g id="HEAD"><path id="HOOD" class="cls-8" d="M621.38,238.71s83.8-23.09,89.73-91.66C712.12,135.44,621.38,238.71,621.38,238.71Z"/><g id="NECK"><path class="cls-4" d="M622.39,104.69s36.17,75.63,69.45,103.86c0,0-53.13,35.33-97.73,35.31,0,0-29.2-51.42-41.3-71.09Z"/><path class="cls-9" d="M580.16,219.45c-9.23-16.07-20.8-36-27.35-46.68L605.75,121l3.63,7.23C613.24,162.89,603.57,200.71,580.16,219.45Z"/></g><path id="HEAD-2" data-name="HEAD" class="cls-4" d="M610.78,119.81s-.16,29-11.19,45.05c-13.88,20.21-49.21,42-76.1,38S473.15,62.67,493.32,54.61,569.84,39.15,586.64,64,610.78,119.81,610.78,119.81Z"/><g id="HAIR"><path class="cls-10" d="M639,136.62s-11.71,1.88-28.73-5.93c.53-6.36.77-19.42-5.81-23.18-7.18-4.1-11.28,7.47-12.55,11.85q-2.3-1.78-4.65-3.83c-28-24.33-20.71-48.15-20.71-48.15s-41.66,24.5-81.35,22.88c-32.94-1.34-49.07-47.44-21.3-61.18,0,0-2,12.63,22.24,6.58S505.67,5,539.64.67c41.86-5.29,50.51,22.44,50.51,22.44s20.05-10.55,40.69,8.64C652.83,52.2,624.42,109.28,639,136.62Z"/><path class="cls-11" d="M570.83,62.94S531.89,94,489.57,99.51c-39.81,5.18-57.25-46.23-30.2-64.87"/><path class="cls-11" d="M586.55,25.18s13.61-19.36,39.38-8"/></g></g><g id="HOODY"><path class="cls-6" d="M732.8,743.29C764,712.73,803.74,520,793.36,396.44a210.41,210.41,0,0,0-6.15-41.69v0a164.45,164.45,0,0,0-7.09-23.62c-9-23-29.58-47-58.2-63.39-29.17-20.89-67.23-35.34-117.67-26.9-75.08,12.56-92.51,87.51-96.55,121.63l-.06-.06L487.27,476.93l-148.64,5.61v48.62S460.6,605.56,547,584l.76-.2c-41,40.1-88.32,56.6-88.32,56.6S603.41,729.72,732.8,743.29Z"/><path class="cls-12" d="M620,427.36S591.54,570.71,538.63,589"/><path class="cls-6" d="M621.38,238.71c23.19-3,84.64-42.07,89.68-93.5,0,0,92.39,93.5,58.55,168.21,0,0-18.84-35-59.58-56.27C661.27,231.72,621.38,238.71,621.38,238.71Z"/><path class="cls-12" d="M777.78,317.47s-28-37.22-67.75-60.32c-55.65-32.35-124.11-15.4-124.11-15.4"/></g><g id="ARM"><path class="cls-4" d="M339.11,513.88s-14.77,23.35-30.49,20-30.35-5.65-38.32-1.55c-9.85,5.07-19.63,16.26-26.06,16.05a60.77,60.77,0,0,1-22.6-5A273.45,273.45,0,0,1,235,519.3c-5.45,3.45-12.68,10.53-16.68,13.21-6.4,4.3-10.88-1.82-10.88-1.82s11.06-15.71,15.9-19.8c4.65-3.93,21.43-16.12,28.75-17.2,8.79-2.09,52.16-8.44,87.12-10.83Z"/><path class="cls-13" d="M229.8,543.6s19.61-28.72,25.06-30.74c9.6-3.55,22.12-8.24,22.12-8.24"/><path class="cls-13" d="M239.35,546.2s17.72-24,23.16-26c9.6-3.55,22.13-8.25,22.13-8.25"/></g></g></g></g></g></svg>