<svg xmlns="http://www.w3.org/2000/svg" viewBox="0 0 504.64 1462.12"><defs><style>.cls-1{fill:#c36f0b;}.cls-2{fill:#b65a18;}.cls-3{fill:#3f4d79;}.cls-4{fill:#3cbfd4;}.cls-13,.cls-14,.cls-5,.cls-8{fill:none;}.cls-5{stroke:#fff;stroke-width:4px;}.cls-12,.cls-13,.cls-14,.cls-15,.cls-5,.cls-6,.cls-8{stroke-miterlimit:10;}.cls-11,.cls-12,.cls-15,.cls-6{fill:#fff;}.cls-14,.cls-6{stroke:#3f4d79;}.cls-14,.cls-6,.cls-8{stroke-linecap:round;}.cls-14,.cls-15,.cls-6{stroke-width:6px;}.cls-7{fill:#ffb000;}.cls-8{stroke:#b65a18;}.cls-13,.cls-8{stroke-width:3px;}.cls-9{fill:#fe7523;}.cls-10{opacity:0.5;}.cls-12{stroke:#84d7ec;stroke-width:5px;}.cls-13{stroke:#ffb000;}.cls-15{stroke:#3cbfd4;}</style></defs><g id="Layer_2" data-name="Layer 2"><g id="Слой_1" data-name="Слой 1"><g id="_1" data-name="1"><g id="RIGHT_FOOT" data-name="RIGHT FOOT"><g id="FOOT"><path id="FOOT-2" data-name="FOOT" class="cls-1" d="M336.17,1327.45c7.85,15.34,37,57.4,37.17,77.66.16,16.47-13.72,29.19-6.58,40.58,9.36,14.92,125,4.77,128.06,4.08s-53.16-27.82-68.34-55.63a248.52,248.52,0,0,1-25.14-69Z"/><path id="SHADOW" class="cls-2" d="M403.25,1333.88c-11.69,5.35-33.71,14.5-53.28,17.25-5.76-9.77-11.07-18.34-13.8-23.68l65.17-2.34S401.9,1328.35,403.25,1333.88Z"/></g><g id="SHOES"><path class="cls-3" d="M422.17,1451.36l29.42-36s47.79,17.23,47.79,36Z"/><path class="cls-3" d="M435.64,1394.59v2.3a4.23,4.23,0,0,1-4.23,4.23H385.23c23.34,12.36,31.26,50.24,31.26,50.24H366.6c-11.31-18.12,1.75-44.83,5.68-52a4.21,4.21,0,0,1-.76-2.42v-2.3a4.23,4.23,0,0,1,4.23-4.23h55.66A4.23,4.23,0,0,1,435.64,1394.59Z"/><rect class="cls-4" x="359.52" y="1451.36" width="145.12" height="10.76" rx="4.23"/></g></g><g id="LEFT_FOOT" data-name="LEFT FOOT"><g id="FOOT-3" data-name="FOOT"><path id="FOOT-4" data-name="FOOT" class="cls-1" d="M39.33,1327.45c3.45,12.92,15.94,57.13,11.46,73s-17,27.52-13.59,43.7c3.69,17.22,104.7,6.33,107.81,5.64s-53.64-32.19-54.32-55.63,6.8-66.69,6.8-66.69Z"/><path id="SHADOW-2" data-name="SHADOW" class="cls-2" d="M39.33,1327.45H97.49s-1.44,8.31-3,19.62c-21.17,2-42.93-5-52.2-8.54C41.08,1333.9,40,1330,39.33,1327.45Z"/></g><g id="SHOES-2" data-name="SHOES"><path class="cls-3" d="M71.73,1452s13.12-16,31.6-20.69c20.26-5.16,30.09-2.41,41,3.12,10.58,5.35,16.5,16.89,16.5,16.89Z"/><path class="cls-3" d="M96.51,1394.59v2.3a4.23,4.23,0,0,1-4.23,4.23H52.56c19.69,9.75,18.72,50.68,18.72,50.68H37c-11.41-18.27,4.9-44.12,9.49-50.75-1.84-.33-2.55-2.06-2.55-4.16v-2.3c0-2.34.89-4.23,3.23-4.23H92.28A4.23,4.23,0,0,1,96.51,1394.59Z"/><rect class="cls-4" x="30.92" y="1451.36" width="135.6" height="10.76" rx="4.23"/></g></g><g id="PANTS"><path class="cls-4" d="M411.58,1322.35c-60.15,19.28-123,5.1-123,5.1-16.65-40.13-44.77-122.35-44.77-302.85,0-31.87-37.57-90.82-66.81-159.47-14.69,98.82-29.3,199.6-31.71,217.25-4.79,35.15-28,243-28,243-74,14.22-114.11-1-114.11-1-12.49-192.71,51-279.6,48.5-313.77C50.12,989.13,30.89,842.75,30.9,743.36c0-105,40.83-163.37,93.49-209.52l.54.35c4.79,3,42.13,23.53,140.17,13.07,8,61.52,56.59,236,91.34,506.79C372.63,1180.24,411.58,1322.35,411.58,1322.35Z"/><path id="_Контур_" data-name="&lt;Контур&gt;" class="cls-5" d="M202.27,715.74c-7.57,48.14-14.58,100.57-24.77,169.54"/></g><g id="RIGHT_HAND_MICROPHONE" data-name="RIGHT HAND &amp; MICROPHONE"><path id="ARM" class="cls-1" d="M470.51,252.45c-.15,4.62-4.22,12.26.65,11.61,2.51-.34,20.34-5.52,23.38.89a14.74,14.74,0,0,1,.72,9.72c4.71,5.46,2.26,10.7,2.26,10.7,2.87,3.4,4.1,8.12,2.68,10.44,0,0,5.41,9.19,1.67,11.95-11.6,8.54-31.31,12.45-41.25,11.15-7-.92-15.59-4.1-19.44-18.23-1.58-5.78,2.39-21.91,6.08-28.87,1.51-2.85,6.92-14.14,8.83-17.28a34.12,34.12,0,0,0,4.65-15.08S470.93,239.54,470.51,252.45Z"/><path id="HAND" class="cls-1" d="M287.74,254.7c23.43,7.3,74.68,165.74,74.68,165.74S440.73,298,444.64,297s18.63,20.41,18.63,20.41S428.06,505.63,359.18,510c-50.76,3.24-93.1-162.4-97.34-187.43C256,287.9,261.77,246.6,287.74,254.7Z"/><g id="MICROPHONE"><path class="cls-3" d="M442.08,166.83l-48.82-.22V120.25c0-10.38,9.17-18.82,20.44-18.82h7.95c11.27,0,20.43,8.44,20.43,18.82ZM396.92,163l41.51.18V120.25c0-8.36-7.53-15.17-16.78-15.17H413.7c-9.25,0-16.78,6.81-16.78,15.17Z"/><path class="cls-4" d="M435.74,127.86V209.7a7.61,7.61,0,0,1-7.61,7.62H400.37a7.82,7.82,0,0,1-1.82-.22,7.76,7.76,0,0,1-5.51-5.3,7.66,7.66,0,0,1-.29-2.1V127.86A19.24,19.24,0,0,1,412,108.62h4.52A19.23,19.23,0,0,1,435.74,127.86Z"/><rect class="cls-3" x="392.76" y="128.28" width="11.24" height="3.65"/><rect class="cls-3" x="392.76" y="138.59" width="11.24" height="3.65"/><rect class="cls-3" x="392.76" y="148.89" width="11.24" height="3.65"/><path class="cls-3" d="M473.36,376.13a2.74,2.74,0,0,1-2.74-2.74v-235a2.74,2.74,0,0,1,5.48,0v235A2.74,2.74,0,0,1,473.36,376.13Z"/><rect class="cls-6" x="463.09" y="373.39" width="19.55" height="1085.72"/><polygon class="cls-3" points="407.39 173.49 392.75 186.88 392.75 181.93 404.93 170.8 407.39 173.49"/><polygon class="cls-3" points="416.51 175.19 392.75 196.93 392.75 191.98 414.04 172.5 416.51 175.19"/><polygon class="cls-3" points="427.5 175.19 392.75 206.98 392.75 202.03 425.03 172.5 427.5 175.19"/><path class="cls-3" d="M435.74,174.1v3.6L394.94,215a7.46,7.46,0,0,1-1.9-3.22l42-38.44Z"/><path class="cls-3" d="M435.74,183.08V188l-32,29.29h-3.36a7.82,7.82,0,0,1-1.82-.22Z"/><polygon class="cls-3" points="435.74 193.1 435.74 198.06 414.69 217.32 409.27 217.32 435.74 193.1"/><polygon class="cls-3" points="435.74 203.13 435.74 208.08 425.65 217.32 420.24 217.32 435.74 203.13"/><path class="cls-7" d="M478.84,166.21v6.39H442a4,4,0,0,1-2.69,3,3.88,3.88,0,0,1-1.24.2H390.91a4,4,0,0,1-4-4V167a4,4,0,0,1,4-4H438.1a3.88,3.88,0,0,1,1.24.2,4,4,0,0,1,2.69,3Z"/></g><g id="FINGERS"><path class="cls-1" d="M493.78,308.4c-16.35,5.13-20,4.78-21.08-2.51-.34-2.31,1.63-3.38,3.41-3.88a22.75,22.75,0,0,1-2.49.35c-2.49.61-6.71-7.87-3-10.22-1.55-.78-3.19-6.31-3.18-11.23-2.88-2-3.12-7.91.27-9.1,3.16-1.1,21.65-4,20.84-7Z"/><path class="cls-8" d="M493.48,275a127.24,127.24,0,0,1-22.58,6.4c-5.81,1.68-7.61-8-3.16-9.56,3.16-1.1,17.94-5.92,20.83-7"/><path class="cls-8" d="M495.37,285.62c-19.15,6.38-23.53,6.66-23.53,6.66-2.8.92-7.73-8.75-.94-10.91"/><path class="cls-8" d="M498.06,295.69c-18,6.34-24.45,6.66-24.45,6.66-2.69.67-6.45-9.46.16-10.33"/><path class="cls-8" d="M478.78,301.59s-6.69.2-6.08,4.3c1.08,7.29,4.72,7.64,21.07,2.51"/></g></g><g id="TOP"><path class="cls-9" d="M282.19,429.91s-13.83,97.8-17.08,117.34-115.33,17-140.07-13.59c0,0-13.92-91.76-38.62-162.25C64.92,310.08,62.57,240,80.54,231.27c24.1-11.72,79.86-23.67,90.93-42.55a107.79,107.79,0,0,0,6-12.88l.1.08c38.3,29.19,68.6,26.35,68.6,26.35-2.37,9.17-3.41,17.89-.25,21.31,7.81,8.47,47.3,22.1,48.82,37.23.65,6.51-21.72,30.11-3.4,92.82C303.39,395,310.36,410.52,282.19,429.91Z"/><g class="cls-10"><path class="cls-11" d="M208.82,194.3l-131.08,39a10.79,10.79,0,0,1,2.8-2c8.22-4,20.12-8,32.68-12.35L203.69,192C205.45,192.84,207.16,193.61,208.82,194.3Z"/><path class="cls-11" d="M246.13,202.27c-.08.33-.18.66-.25,1L69.56,255.7c.18-1.37.38-2.7.61-4L237.4,202A48.5,48.5,0,0,0,246.13,202.27Z"/><path class="cls-11" d="M245.65,223.33,68.54,276c0-1.3,0-2.57,0-3.82l175.69-52.26A8.08,8.08,0,0,0,245.65,223.33Z"/><path class="cls-11" d="M267.51,236.81,69.64,295.66c-.11-1.25-.22-2.49-.32-3.72L263,234.34C264.47,235.14,266,236,267.51,236.81Z"/><path class="cls-11" d="M288.4,250.58,72.14,314.9c-.2-1.22-.39-2.43-.58-3.64l213.5-63.49C286.26,248.7,287.37,249.63,288.4,250.58Z"/><path class="cls-11" d="M286.1,287.42c-.26,1.29-.51,2.63-.74,4l-204.93,61c-.34-1.17-.66-2.35-1-3.52Z"/><path class="cls-11" d="M293.55,265.23c-.5,1.23-1.13,2.67-1.82,4.35l-216,64.23c-.27-1.2-.53-2.39-.77-3.58Z"/><path class="cls-11" d="M284.13,311.81l-198,58.88c-.4-1.15-.8-2.3-1.18-3.46L284.08,308C284.07,309.25,284.09,310.51,284.13,311.81Z"/><path class="cls-11" d="M286.09,331.22,92.2,388.88l-1.11-3.48,194.45-57.84C285.7,328.76,285.89,330,286.09,331.22Z"/><path class="cls-11" d="M290.27,350,97.67,407.25c-.33-1.17-.67-2.35-1-3.52l192.67-57.3C289.63,347.59,289.94,348.76,290.27,350Z"/><path class="cls-11" d="M295.64,368.35l-193,57.39c-.3-1.18-.61-2.35-.92-3.53l192.87-57.36C295,366,295.31,367.21,295.64,368.35Z"/><path class="cls-11" d="M300.46,386.9,107.3,444.36c-.28-1.18-.56-2.37-.86-3.56l193.24-57.48C300,384.55,300.22,385.74,300.46,386.9Z"/><path class="cls-11" d="M301.68,402.72a30.61,30.61,0,0,1-.65,4L111.59,463.06c-.26-1.17-.53-2.37-.79-3.57Z"/><path class="cls-11" d="M285.51,427.52c-1.05.79-2.16,1.59-3.32,2.39,0,0-.12.89-.35,2.51L115.59,481.86c-.25-1.19-.5-2.38-.74-3.59Z"/><path class="cls-11" d="M279.44,449.31c-.18,1.28-.37,2.61-.57,4L119.3,500.75c-.23-1.18-.45-2.39-.68-3.61Z"/><path class="cls-11" d="M276.46,470.18c-.18,1.31-.38,2.64-.57,4L122.74,519.72l-.63-3.63Z"/><path class="cls-11" d="M273.45,491.07c-.19,1.32-.38,2.65-.56,4L129.1,537.81a33.23,33.23,0,0,1-3-2.91Z"/><path class="cls-11" d="M270.43,512c-.2,1.35-.39,2.67-.58,4L153.76,550.46q-3-1-5.83-2.08Z"/><path class="cls-11" d="M267.34,532.85l-.6,4L193.9,558.51q-4.56-.46-9.09-1.11Z"/></g></g><g id="PAPER"><path class="cls-12" d="M496.11,473.54a20.91,20.91,0,0,1-.42,4.14h-128a20.77,20.77,0,0,0-29.36-18.9,43.9,43.9,0,0,1,19.59-5.92c.86-.05,1.73-.08,2.61-.08H475.34c.48,0,1,0,1.41.05A20.77,20.77,0,0,1,496.11,473.54Z"/><path class="cls-12" d="M439.06,477.68,381,587.42a36.59,36.59,0,0,1-32.33,19.46H230.35a36.59,36.59,0,0,0,32.33-19.46l58.87-111.19a44,44,0,0,1,10.41-13,44.43,44.43,0,0,1,6.35-4.49,20.77,20.77,0,0,1,29.36,18.9Z"/></g><path id="LEFT_HAND" data-name="LEFT HAND" class="cls-1" d="M76.94,235.64C59.4,242.48,0,366.07,0,456.44c0,29.31,80.11,77.18,216.41,118.7,39.79,12.13,83.53,12.7,91.83,10.75s29.31-46.41,29.31-46.41-8.3-1.46-15.14,6.85c-10.8,13.13-28.82,12.88-37.12,10.34s1.16-19.5,1.16-19.5-19.24-1.6-25.59-.62-30.31,12.71-30.31,12.71-152.39-105-164.6-108c0,0,40.29-104.41,46.53-136.78C120.3,264,98.23,227.35,76.94,235.64Z"/><g id="HEAD"><path id="NECK" class="cls-2" d="M256,174.24a216.89,216.89,0,0,0-9.83,28s-30.3,2.84-68.6-26.35l-.1-.08c7.85-19.36,17.12-49.22,18.42-53.41l1.2.42Z"/><path id="HEAD-2" data-name="HEAD" class="cls-1" d="M267.7,179c13.68,0,25.2-41,25.2-55.68s-9.06-59.59-31.53-65.95-61.1-4.41-61.59,20.5,6.86,62.55,10.28,68.9S241.32,179,267.7,179Z"/><g id="HAIR"><path class="cls-7" d="M212.51,65.14c21.38-10.79,36.41,14.27,66.81,9.82s35.1-32.64,32.83-45.47C309.22,12.88,294.57-1.78,278,.18c0,0,10.47,7,1,14.17C264.77,25.09,261.77,2.12,234.48,4.08c-14.26,1-9.25,18.81-24.91,10.26C190,3.64,155.83,3,159.75,51.1c0,0-20.2,3.14-20.52,24.57-.25,16.83,17,23.08,27.35,31.49,23.45,19,21.77,39.17,21.77,39.17s13.89-4,7.54-24.52c-5.2-16.8,5-17.93,9.28-16.12C215.43,110.09,196,73.49,212.51,65.14Z"/><path class="cls-13" d="M160.66,50.19s-20.52-7.13-25.08,12.43"/><path class="cls-13" d="M211.24,64.28c22-9.37,40.22,18.87,67.84,18.73,30.72-.15,43.82-30.28,42.4-43.23"/></g><g id="HEADPHONES"><path class="cls-14" d="M183.54,100.35,155.78,34.69a8.38,8.38,0,0,1,4.54-11"/><rect class="cls-15" x="169.99" y="98.53" width="48.28" height="56.34" rx="20.76" transform="translate(-30.1 67.89) rotate(-18.43)"/></g></g></g></g></g></svg>