<svg xmlns="http://www.w3.org/2000/svg" viewBox="0 0 787.22 1274.31"><defs><style>.cls-1{fill:#f0e1d4;}.cls-1,.cls-2{stroke:#d8baa3;stroke-width:5px;}.cls-1,.cls-2,.cls-5{stroke-linecap:round;}.cls-1,.cls-10,.cls-11,.cls-12,.cls-2,.cls-5{stroke-miterlimit:10;}.cls-12,.cls-2{fill:#fff;}.cls-3{fill:#ffcfc9;}.cls-4{fill:#ffb000;}.cls-10,.cls-11,.cls-5{fill:none;}.cls-11,.cls-5{stroke:#fff;stroke-width:4px;}.cls-6{fill:#e69900;}.cls-7{fill:#fab6ad;}.cls-8{fill:#3f4d90;}.cls-9{fill:#722d54;}.cls-10{stroke:#722d54;stroke-width:3px;}.cls-12{stroke:#ffb000;stroke-width:6px;}</style></defs><g id="Layer_2" data-name="Layer 2"><g id="Слой_1" data-name="Слой 1"><g id="_2" data-name="2"><g id="CHAIR"><rect class="cls-1" x="429.8" y="965.49" width="28.93" height="188.86"/><path class="cls-2" d="M415.34,825.76H473.2a0,0,0,0,1,0,0V958.34A13.68,13.68,0,0,1,459.51,972H429a13.68,13.68,0,0,1-13.68-13.68V825.76A0,0,0,0,1,415.34,825.76Z"/><path class="cls-1" d="M543.74,1186.66v43.17H516.11v-17.45a32.32,32.32,0,0,0-32.32-32.32H405.06a32.32,32.32,0,0,0-32.32,32.32v17.45H345.11v-43.17a32.32,32.32,0,0,1,32.32-32.32h134A32.32,32.32,0,0,1,543.74,1186.66Z"/><circle class="cls-2" cx="529.78" cy="1242.61" r="28.7"/><circle class="cls-2" cx="357.78" cy="1242.61" r="28.7"/><polygon class="cls-1" points="511.26 759.51 582.59 549.88 633.59 549.88 562.26 759.51 511.26 759.51"/><polygon class="cls-2" points="497.26 759.51 568.59 549.88 619.59 549.88 548.26 759.51 497.26 759.51"/><path class="cls-2" d="M670.37,783.49c0,4.08-6.16,8-17.3,11.5-32.94,10.44-109.36,17.76-198.38,17.76-81.93,0-153.18-6.2-189.7-15.33q-4.74-1.18-8.69-2.43c-11.14-3.53-17.3-7.42-17.3-11.5,0-3.46,4.41-6.77,12.52-9.85,29.8-11.32,109.52-19.42,203.17-19.42C573.81,754.22,670.37,767.33,670.37,783.49Z"/><path class="cls-1" d="M670.37,783.49v23c0,16.16-96.56,29.26-215.68,29.26-81.93,0-153.18-6.2-189.7-15.33-16.58-4.14-26-8.88-26-13.93v-23c0,4.08,6.16,8,17.3,11.5q3.94,1.25,8.69,2.43c36.52,9.13,107.77,15.33,189.7,15.33,89,0,165.44-7.32,198.38-17.76C664.21,791.46,670.37,787.57,670.37,783.49Z"/><path class="cls-2" d="M775.25,417.78H503c-6.95,0-13.28,4.87-16.25,12.51L414,643.68c-3,7.62,1.62,16.4,8.56,16.4H691.36c9,0,17.26-6.33,21.11-16.27l71.34-209.63C786.77,426.55,782.19,417.78,775.25,417.78Z"/></g><g id="LEFT_HAND" data-name="LEFT HAND"><path class="cls-3" d="M206.53,615.92l-44.89,7c-5.66,13.73-19,29.31-21.85,30.82C136.7,655.34,120.64,664,120.64,664s-3.06-5.28-.47-9.9c1.7-3,12.21-8.15,11-12.36s-7.49-3.72-10.27-2.48c-6.66,3-18.62,10.48-17.34,21.63,1.1,9.41-7.55,10.3-7.55,10.3s-4.54-12-4.85-14.27,1.54-24.76,7-31.36c4.36-5.23,25.61-15.46,37.47-20.75l0,0,60-27.17Z"/><path class="cls-4" d="M400,409.6s9.39,131.3-20,164.78S251.16,627.4,205.46,617l-11.38-39.75c45.14-30.51,111-70.48,111-70.48S327,322.8,362,299.86,398.82,383.63,400,409.6Z"/><path class="cls-5" d="M194.47,578.29A91.42,91.42,0,0,1,204.85,616"/><line class="cls-5" x1="197.68" y1="585" x2="223.14" y2="571.11"/><line class="cls-5" x1="200.34" y1="592.12" x2="216.5" y2="587.04"/><line class="cls-5" x1="203.04" y1="602.17" x2="235.3" y2="597.16"/><line class="cls-5" x1="204.85" y1="610.05" x2="220.7" y2="610.05"/></g><g id="LEGS"><g id="LEFT"><path class="cls-6" d="M316.82,1274.31H194.61s-1.67-19.6,14-22.32c13.26-2.31,25.86-16.26,25.86-16.26s30.65,16.06,49-9.8,15.87-53,15.87-53c5.82,7.06,22.39,24.16,23.07,50.86A202.35,202.35,0,0,1,316.82,1274.31Z"/><path class="cls-7" d="M183.34,741.86c-20.42,2.78-64.73,39.38-39.74,111.56s121.79,297.82,120.87,318.73c-1.23,27.92-30,63.58-30,63.58s30.65,16.06,49-9.8,15.86-53,15.86-53,15.8-174-11.56-316.31C275.21,791.47,220.05,736.85,183.34,741.86Z"/></g><g id="RIGHT"><path class="cls-4" d="M411.74,1274.31H289.52s-1.67-19.6,14-22.32c13.25-2.31,25.86-16.26,25.86-16.26s30.65,16.06,49-9.8,15.86-53,15.86-53c5.83,7.06,22.39,24.16,23.08,50.86A202.35,202.35,0,0,1,411.74,1274.31Z"/><path class="cls-3" d="M278.26,741.23c-16.52,12.31-33.31,40-8.31,112.19s91.1,297.87,89.43,318.73-30,63.58-30,63.58,30.65,16.06,49-9.8,15.86-53,15.86-53,35.36-229,21.86-316.31C406,791.05,324.14,707,278.26,741.23Z"/></g></g><path id="SKIRT" class="cls-8" d="M578.43,551.82s39.27,78,54.18,138.25c16.27,65.76-24.88,109.39-117,110.17-73.89.63-59.5,48.19-59.5,48.19s-34.65,18.94-72,0c-39.42-20-59.38-9.63-87.59,1.25C261,863.45,229,836.93,201.48,835.26c-41.3-2.5-52.53,26.93-95.76,1.26,0,0-15.59-109.47,49.48-151.39S430.27,598.2,422,555.58Z"/><g id="BLOUSE"><path id="BLOUSE-2" data-name="BLOUSE" class="cls-4" d="M362,299.86c25.15-17.36,86.83-38.32,110.79-61.68l99.42-4.79c32.32,25.15,92.81,58.76,106.58,79L611.74,443.59s-29.34,92.19-33.53,110.75-109,22.19-159.3,3.6c0,0-15-82-19.76-86.81S368.61,452,373.42,416.64Z"/><path class="cls-5" d="M419.91,556.94s-17-81-21.76-85.81-29.51-19-25.73-54.49C374.32,398.8,389,368,389,368"/></g><g id="RIGHT_HAND" data-name="RIGHT HAND"><path class="cls-3" d="M443.37,627c-.53,3.07-3.08,13-13.34,17.93-12,5.74-13.94,6.51-24.44,12.28-8.37,4.61-14.16,15.27-17.86,19.72-8.3,10-14.76-20.23-12.6-26.43,9.66-15.26,29.82-35,45.53-44.49a119.17,119.17,0,0,1,14.42-6.74c12.83-5,35.26-13,60.08-21.73l11,38.36Z"/><path class="cls-4" d="M495.08,577.29c45.14-30.51,121.05-61.48,121.05-61.48l-5.85-119.67c-1.4-28.53,9.1-56.56,29.55-76.51,18.26-17.81,40-25.06,52.15,21,0,0,40.22,173.16-1,233.78-25,36.82-138.87,53-184.57,42.66Z"/><path class="cls-5" d="M495.08,577.29c45.14-30.51,121.05-61.48,121.05-61.48l-4.39-72.22"/><path class="cls-5" d="M494.08,578.29A91.6,91.6,0,0,1,504.46,616"/><line class="cls-5" x1="497.29" y1="585" x2="522.74" y2="571.11"/><line class="cls-5" x1="499.94" y1="592.12" x2="516.11" y2="587.04"/><line class="cls-5" x1="502.65" y1="602.17" x2="534.91" y2="597.16"/><line class="cls-5" x1="504.46" y1="610.05" x2="520.31" y2="610.05"/></g><g id="HEAD"><g id="HAIR"><path class="cls-9" d="M640.88,164.72s-132,39.94-244.7,34.55c0,0-37.51-46.72-15.17-67.29,20.18-18.57,47.08-29.54,35.9-44.31s-21.94-36.53,9.6-54.1S514.73-11.34,549.27,5C574.76,17.1,560.65,51,576,51.53c17.77.61,40.39,12.42,34.35,42.16C602.56,132,652.06,101.64,640.88,164.72Z"/><path class="cls-10" d="M382.18,199.27S338.49,154.91,370,128c20.85-17.81,47.08-25.54,35.9-40.31s-21.94-36.53,9.6-54.1S504.46-4,538.27,3"/></g><g id="NECK"><path class="cls-3" d="M548.27,128s-5.39,71.86,24,105.4c0,0-37.17,56.29-100.65,58.68s1.23-53.89,1.23-53.89,15.57-21,13.16-74.26Z"/><path class="cls-7" d="M547.86,128.23c-8.85,23.3-30.28,69.08-63.4,73.4A204.5,204.5,0,0,0,486,163.92Z"/></g><path id="HEAD-2" data-name="HEAD" class="cls-3" d="M548.27,128S529.1,176.7,481.19,176.7c-8.38,0-40.48-32.07-38.11-84s58.47-53.37,58.47-53.37-4,54.3,43.73,61.89c0,0,12.16-10.78,17-1.2S548.27,128,548.27,128Z"/><path id="HAIR-2" data-name="HAIR" class="cls-10" d="M501.55,38.36s-18,55.3,29.73,62.89"/><circle id="EARRING" class="cls-11" cx="560.64" cy="133.96" r="14"/><g id="SCARF"><path class="cls-2" d="M571.11,229.05c1-.11,3.23,4.17,2.4,4.73-12.87,8.63-55.59,22-83.85,13.18-37.26-11.64-13.14-22.14-10-20.37C489.51,232,529.16,233.39,571.11,229.05Z"/><path class="cls-2" d="M586.41,224.73s14-21,33.88-18.15C620.29,206.58,610.48,228.29,586.41,224.73Z"/><path class="cls-2" d="M587.88,226.9s36.82-.15,50.68,26.76C638.56,253.66,604.55,259.5,587.88,226.9Z"/><circle class="cls-2" cx="579.64" cy="227.96" r="7.5"/></g></g><g id="LAPTOP"><path class="cls-12" d="M375.17,657.63H103a18,18,0,0,1-16.24-10.3L3.92,471.77a9.45,9.45,0,0,1,8.55-13.49H281.28a23.33,23.33,0,0,1,21.11,13.38l81.34,172.47A9.46,9.46,0,0,1,375.17,657.63Z"/><rect class="cls-12" x="84.79" y="657.63" width="452.07" height="19.94" rx="8.98"/></g></g></g></g></svg>