<svg xmlns="http://www.w3.org/2000/svg" viewBox="0 0 951.01 1260.75"><defs><style>.cls-1,.cls-12,.cls-15,.cls-23,.cls-9{fill:#fff;}.cls-1,.cls-12,.cls-17,.cls-4,.cls-5{stroke:#aee5f2;}.cls-1,.cls-11,.cls-22,.cls-23,.cls-24,.cls-26,.cls-27,.cls-28,.cls-4,.cls-5,.cls-7,.cls-8,.cls-9{stroke-miterlimit:10;}.cls-1,.cls-12,.cls-17,.cls-22,.cls-23,.cls-26{stroke-width:6px;}.cls-2{fill:#dcf5ff;}.cls-3{fill:#3f4d79;}.cls-10,.cls-11,.cls-13,.cls-17,.cls-22,.cls-24,.cls-26,.cls-27,.cls-28,.cls-4,.cls-5,.cls-7,.cls-8{fill:none;}.cls-10,.cls-27,.cls-28,.cls-4,.cls-8{stroke-width:3px;}.cls-5{stroke-width:1.5px;}.cls-16,.cls-6{fill:#ffb000;}.cls-26,.cls-7{stroke:#fff;}.cls-7{stroke-width:2px;}.cls-13,.cls-15,.cls-16,.cls-23,.cls-28,.cls-8{stroke:#3cbfd4;}.cls-10,.cls-13,.cls-24,.cls-26,.cls-8{stroke-linecap:round;}.cls-10,.cls-11,.cls-9{stroke:#ffb000;}.cls-13,.cls-15,.cls-16,.cls-9{stroke-width:4px;}.cls-10,.cls-12,.cls-13,.cls-15,.cls-16,.cls-17{stroke-linejoin:round;}.cls-11{stroke-width:5px;}.cls-14{fill:#dc9600;}.cls-18{fill:#daf3f9;}.cls-19{fill:#aad9f3;}.cls-20{fill:#c36f0b;}.cls-21{fill:#2d4263;}.cls-22,.cls-27{stroke:#3f4d79;}.cls-24{stroke:#aad9f3;stroke-width:8px;}.cls-25{fill:#b65a18;}.cls-29{fill:#3cbfd4;}</style></defs><g id="Layer_2" data-name="Layer 2"><g id="Слой_1" data-name="Слой 1"><g id="_4" data-name="4"><g id="EQUIPMENT"><g id="MONITOR"><polygon class="cls-1" points="368.46 420.32 187.74 420.32 227.74 314.62 408.46 314.62 368.46 420.32"/><polygon class="cls-1" points="411.46 314.62 371.46 420.32 200.74 420.32 240.74 314.62 411.46 314.62"/><rect class="cls-1" x="54.03" y="26.24" width="502.93" height="298.47" rx="11.53"/><polygon class="cls-2" points="407.85 314.62 396.64 345.71 227.6 358.71 244.11 314.62 407.85 314.62"/><rect class="cls-1" x="66.07" y="26.24" width="502.93" height="298.47" rx="11.53"/><rect class="cls-3" x="91.02" y="49.69" width="458.68" height="201.11"/><rect class="cls-4" x="91.02" y="49.69" width="458.68" height="201.11"/><line class="cls-5" x1="127.6" y1="49.69" x2="127.6" y2="250.79"/><line class="cls-5" x1="166.03" y1="49.69" x2="166.03" y2="250.79"/><line class="cls-5" x1="204.47" y1="49.69" x2="204.47" y2="250.79"/><line class="cls-5" x1="242.9" y1="49.69" x2="242.9" y2="250.79"/><line class="cls-5" x1="281.34" y1="49.69" x2="281.34" y2="250.79"/><line class="cls-5" x1="319.77" y1="49.69" x2="319.77" y2="250.79"/><line class="cls-5" x1="358.21" y1="49.69" x2="358.21" y2="250.79"/><line class="cls-5" x1="396.64" y1="49.69" x2="396.64" y2="250.79"/><line class="cls-5" x1="435.07" y1="49.69" x2="435.07" y2="250.79"/><line class="cls-5" x1="473.51" y1="49.69" x2="473.51" y2="250.79"/><line class="cls-5" x1="511.94" y1="49.69" x2="511.94" y2="250.79"/><path class="cls-2" d="M549.73,169.58c-16.24,0-13.93-26-36-26-22.48,0-42.24,71.82-71.64,71.82-31.53,0-44.27-65.17-70.59-65.17-35.56,0-35.28,50.27-74.77,50.27s-58.78-93.85-92-93.85c-30.2,0-38.62,87-76.82,87-20.31,0-23.79-23.36-37.53-23.36"/><path class="cls-6" d="M91.45,170.35c113.11,0,117.5-25.07,165.8-25.07,42.54,0,58,46,92,46,38.76,0,58.21-51.83,84.47-51.83s39.37,52.95,61.49,52.95,29.7-22.72,53.94-22.72Z"/><path class="cls-7" d="M90.24,169.14c133.68,0,132.48-37,171.72-37,38.67,0,57.67,69.88,91.7,69.88,38.76,0,49.54-77.81,80.09-77.81,31.48,0,42.77,79,67.19,79,22,0,24-32.36,48.24-32.36"/><line class="cls-8" x1="93.59" y1="267.58" x2="549.22" y2="267.58"/><path class="cls-6" d="M92.6,263.94H252.72a0,0,0,0,1,0,0v7.27a0,0,0,0,1,0,0H92.6a3.32,3.32,0,0,1-3.32-3.32v-.63a3.32,3.32,0,0,1,3.32-3.32Z"/><circle class="cls-9" cx="259.82" cy="267.94" r="6.02"/><rect class="cls-6" x="312.37" y="285.7" width="5.13" height="18.59" rx="2.34"/><rect class="cls-6" x="322.28" y="285.7" width="5.13" height="18.59" rx="2.34"/><path class="cls-6" d="M339,302.5v-15a1.69,1.69,0,0,1,2.6-1.43l11.87,7.49a1.7,1.7,0,0,1,0,2.87l-11.87,7.5A1.7,1.7,0,0,1,339,302.5Z"/><path class="cls-10" d="M295,291v5a7.52,7.52,0,0,1-7.52,7.52h-5.12a8.1,8.1,0,0,1-8.1-8.1h0a8.11,8.11,0,0,1,8.1-8.11"/><polyline class="cls-10" points="289.37 292.94 295 287.31 300.63 292.94"/></g><polyline id="TABLE" class="cls-11" points="0 536.88 618.48 536.88 618.48 567.27 0.49 567.27"/><g id="EQUALIZER"><polygon class="cls-12" points="593 516.46 593 530.88 241.6 530.88 241.6 516.46 68.31 409.85 419.72 409.85 578.49 507.53 593 516.46"/><polygon class="cls-12" points="241.6 516.46 241.6 530.88 68.31 530.88 68.31 409.85 241.6 516.46"/><line class="cls-13" x1="200.63" y1="468.08" x2="259.71" y2="504.42"/><polygon class="cls-6" points="254.52 496.38 254.52 499.12 246.22 499.12 246.22 496.38 240.84 490.69 232.94 482.34 241.25 482.34 254.52 496.38"/><polygon class="cls-14" points="254.52 496.39 254.52 499.13 246.22 499.13 240.84 495.82 232.94 490.96 232.94 482.34 240.84 490.69 246.22 496.38 246.22 496.39 254.52 496.39"/><path class="cls-15" d="M191.6,453.73c0,1.57-3.44,2.84-7.68,2.84s-7.68-1.27-7.68-2.84l2-14.66h11.29Z"/><ellipse class="cls-16" cx="183.91" cy="439.16" rx="5.65" ry="3.06"/><path class="cls-15" d="M164.75,438.57c0,1.57-3.44,2.84-7.68,2.84s-7.68-1.27-7.68-2.84l2-14.66h11.3Z"/><ellipse class="cls-16" cx="157.06" cy="424" rx="5.65" ry="3.06"/><path class="cls-15" d="M140.08,422.61c0,1.57-3.44,2.84-7.68,2.84s-7.68-1.27-7.68-2.84l2-14.66H138Z"/><ellipse class="cls-16" cx="132.39" cy="408.04" rx="5.65" ry="3.06"/><path class="cls-15" d="M248.92,453.73c0,1.57-3.43,2.84-7.67,2.84s-7.68-1.27-7.68-2.84l2-14.66h11.29Z"/><ellipse class="cls-16" cx="241.24" cy="439.16" rx="5.65" ry="3.06"/><path class="cls-15" d="M222.08,438.57c0,1.57-3.44,2.84-7.68,2.84s-7.68-1.27-7.68-2.84l2-14.66H220Z"/><ellipse class="cls-16" cx="214.39" cy="424" rx="5.65" ry="3.06"/><path class="cls-15" d="M197.4,422.61c0,1.57-3.43,2.84-7.68,2.84s-7.68-1.27-7.68-2.84l2-14.66h11.29Z"/><ellipse class="cls-16" cx="189.72" cy="408.04" rx="5.65" ry="3.06"/><path class="cls-15" d="M301.17,453.73c0,1.57-3.44,2.84-7.68,2.84s-7.68-1.27-7.68-2.84l2-14.66h11.29Z"/><ellipse class="cls-16" cx="293.49" cy="439.16" rx="5.65" ry="3.06"/><path class="cls-15" d="M274.32,438.57c0,1.57-3.44,2.84-7.68,2.84s-7.68-1.27-7.68-2.84l2-14.66h11.29Z"/><ellipse class="cls-16" cx="266.64" cy="424" rx="5.65" ry="3.06"/><path class="cls-15" d="M249.65,422.61c0,1.57-3.44,2.84-7.68,2.84s-7.68-1.27-7.68-2.84l2-14.66h11.29Z"/><ellipse class="cls-16" cx="241.97" cy="408.04" rx="5.65" ry="3.06"/><path class="cls-15" d="M354.14,453.73c0,1.57-3.43,2.84-7.68,2.84s-7.68-1.27-7.68-2.84l2-14.66h11.29Z"/><ellipse class="cls-16" cx="346.46" cy="439.16" rx="5.65" ry="3.06"/><path class="cls-15" d="M327.29,438.57c0,1.57-3.43,2.84-7.67,2.84s-7.68-1.27-7.68-2.84l2-14.66h11.29Z"/><ellipse class="cls-16" cx="319.61" cy="424" rx="5.65" ry="3.06"/><path class="cls-15" d="M302.62,422.61c0,1.57-3.44,2.84-7.68,2.84s-7.68-1.27-7.68-2.84l2-14.66h11.29Z"/><ellipse class="cls-16" cx="294.94" cy="408.04" rx="5.65" ry="3.06"/><path class="cls-15" d="M404.94,453.73c0,1.57-3.44,2.84-7.68,2.84s-7.68-1.27-7.68-2.84l2-14.66h11.3Z"/><ellipse class="cls-16" cx="397.25" cy="439.16" rx="5.65" ry="3.06"/><path class="cls-15" d="M378.09,438.57c0,1.57-3.44,2.84-7.68,2.84s-7.68-1.27-7.68-2.84l2-14.66h11.29Z"/><ellipse class="cls-16" cx="370.41" cy="424" rx="5.65" ry="3.06"/><path class="cls-15" d="M353.42,422.61c0,1.57-3.44,2.84-7.68,2.84s-7.68-1.27-7.68-2.84l2-14.66h11.29Z"/><ellipse class="cls-16" cx="345.73" cy="408.04" rx="5.65" ry="3.06"/><path class="cls-15" d="M455.94,453.73c0,1.57-3.44,2.84-7.68,2.84s-7.68-1.27-7.68-2.84l2-14.66h11.3Z"/><ellipse class="cls-16" cx="448.25" cy="439.16" rx="5.65" ry="3.06"/><path class="cls-15" d="M429.09,438.57c0,1.57-3.44,2.84-7.68,2.84s-7.68-1.27-7.68-2.84l2-14.66h11.29Z"/><ellipse class="cls-16" cx="421.41" cy="424" rx="5.65" ry="3.06"/><path class="cls-15" d="M404.42,422.61c0,1.57-3.44,2.84-7.68,2.84s-7.68-1.27-7.68-2.84l2-14.66h11.29Z"/><ellipse class="cls-16" cx="396.73" cy="408.04" rx="5.65" ry="3.06"/><line class="cls-17" x1="241.61" y1="517.26" x2="593" y2="517.26"/><line class="cls-13" x1="253.61" y1="468.08" x2="312.68" y2="504.42"/><polygon class="cls-6" points="278.92 484 265.64 469.95 273.95 469.95 287.22 484 278.92 484"/><polygon class="cls-14" points="278.91 484 287.22 484 287.22 486.75 278.91 486.75 273.54 483.42 265.63 478.56 265.63 469.95 278.91 484"/><line class="cls-13" x1="305.85" y1="468.08" x2="364.93" y2="504.42"/><polygon class="cls-6" points="351.44 496.38 338.16 482.33 346.47 482.33 359.74 496.38 351.44 496.38"/><polygon class="cls-14" points="351.44 496.38 359.75 496.38 359.75 499.12 351.44 499.12 346.07 495.8 338.16 490.94 338.16 482.33 351.44 496.38"/><line class="cls-13" x1="357.37" y1="468.08" x2="416.45" y2="504.42"/><polygon class="cls-6" points="402.95 496.38 389.68 482.33 397.98 482.33 411.26 496.38 402.95 496.38"/><polygon class="cls-14" points="402.95 496.38 411.26 496.38 411.26 499.12 402.95 499.12 397.58 495.8 389.67 490.94 389.67 482.33 402.95 496.38"/><line class="cls-13" x1="411.07" y1="468.08" x2="470.15" y2="504.42"/><polygon class="cls-6" points="456.66 496.38 443.38 482.33 451.69 482.33 464.96 496.38 456.66 496.38"/><polygon class="cls-14" points="456.66 496.38 464.97 496.38 464.97 499.12 456.66 499.12 451.29 495.8 443.38 490.94 443.38 482.33 456.66 496.38"/><line class="cls-13" x1="462.07" y1="468.08" x2="521.15" y2="504.42"/><polygon class="cls-6" points="507.66 496.38 494.38 482.33 502.69 482.33 515.96 496.38 507.66 496.38"/><polygon class="cls-14" points="507.66 496.38 515.97 496.38 515.97 499.12 507.66 499.12 502.29 495.8 494.38 490.94 494.38 482.33 507.66 496.38"/></g></g><g id="MAN"><g id="RIGHT_LEG" data-name="RIGHT LEG"><g id="SHOE"><path class="cls-18" d="M727.07,1164.26c0,14.91-31.94,82-42.3,82H584.94s1.26-39.36,32.34-42.47c0,0,24.84-90.76,36.44-91,17.47-.31,41.44-3.73,41.44-3.73C702.62,1116.18,727.07,1149.34,727.07,1164.26Z"/><path class="cls-19" d="M581.8,1254.3h103c10.36,0,42.3-75.13,42.3-90-9.12-6.43-40.33-12.24-51.39,8.49-14.1,26.46-28.08,67.25-33.56,72.89H581.8Z"/></g><path id="FOOT" class="cls-20" d="M642.12,1085.22l11.6,27.65s28,6.31,41.44-3.73v-30.87A274.39,274.39,0,0,1,642.12,1085.22Z"/><path id="LEG" class="cls-21" d="M488.51,828c6.38,20.71,126.65,245.43,140.73,254.2s71.72-3.67,74.21-7-26-236-42.59-237.78S488.51,828,488.51,828Z"/></g><g id="CHAIR"><path class="cls-22" d="M829.67,859.84l65,395.5a2.88,2.88,0,0,0,2.83,2.41h0a2.88,2.88,0,0,0,2.86-3.15L861.91,854.37"/><path class="cls-22" d="M619.69,859.21l-65,396.13a2.87,2.87,0,0,1-2.83,2.41h0a2.86,2.86,0,0,1-2.85-3.15l38.48-400.85"/><path class="cls-23" d="M900.7,819.85c0,3.58-6,7-16.8,10-28,7.91-88.25,13.37-158,13.37-68.8,0-128.32-5.31-156.84-13.05l-1.16-.32c-10.77-3-16.8-6.42-16.8-10a3.75,3.75,0,0,1,.65-2c7.71-11.95,82.74-21.34,174.15-21.34C822.44,796.47,900.7,806.94,900.7,819.85Z"/><path class="cls-23" d="M900.7,819.85v20c0,12.91-78.26,23.37-174.81,23.37-72.6,0-134.85-5.92-161.27-14.34-8.71-2.78-13.53-5.83-13.53-9v-20c0,3.58,6,7,16.8,10l1.16.32c28.52,7.74,88,13.05,156.84,13.05,69.76,0,130-5.46,158-13.37C894.67,826.82,900.7,823.43,900.7,819.85Z"/></g><g id="LEFT_LEG" data-name="LEFT LEG"><g id="SHOE-2" data-name="SHOE"><path class="cls-18" d="M541,1109.14c8,4.28,46.65,26,46.65,43.54s-37.22,43.33-50.14,55.66-25.24,46.87-39.3,48.63-93.75,0-93.75,0-6.94-27.62,27.89-38.67C474,1205.09,488,1139,488,1139Z"/><path class="cls-24" d="M587.66,1150.68c0,17.57-37.22,43.33-50.14,55.66s-25.24,46.87-39.3,48.63-93.75,0-93.75,0"/></g><path id="FOOT-2" data-name="FOOT" class="cls-20" d="M526.78,1087.15s-.69,12,14.23,22-38.95,30.67-53,29.84l-16.35-27.3S515.45,1097,526.78,1087.15Z"/><path id="LEG-2" data-name="LEG" class="cls-3" d="M870.86,720.36s32.84,108.72-46.41,116.5C727.07,846.42,490.51,829,490.51,829s46.12,161,48.6,251.34c0,0-39.6,33.88-87.66,33,0,0-206.89-284.62-141.59-376.84,57.82-81.66,322.31-84.85,322.31-84.85S643,719.46,870.86,720.36Z"/></g><path id="T-SHIRT" class="cls-6" d="M936.51,497.23C915.64,579,894.76,640.4,910.86,713.56c0,0-66.22,37.33-200.57-.89-59-16.8-103-65.2-103-65.2s46.87-42.54,43.33-77.81c-3.07-30.66-16.43-85.62-24.25-135-27.65-14.73-61.58-37.27-85.2-68,0,0,2.88-20.48,52.78-83.18,39.06-49.07,122-52.4,154.5-55.16,48-9.75,85.31-11.63,108.06-11.23,20.76.37,36.28,10.8,49.2,27C942.75,290.8,968.51,371.87,936.51,497.23Z"/><g id="HAND"><path class="cls-20" d="M671.55,455c-32.42,40.35-74.39,81.09-108,79.63C457.31,530,372.86,493.88,341.89,476c-11.31-.58-48.18-8.57-54.12-9.74-6.31-1.24-41.65-10.23-40.61-15.49s8.35-22.64,11.26-27,26.64-19.12,43.32-20.31c13.85-1,36.5,18.24,43.79,24.8h0c25.29-1.64,184.21-16.06,184.21-16.06s7.36-13.88,20.13-35C592.65,424.91,658.35,450.26,671.55,455Z"/><g id="ARM"><path class="cls-25" d="M287.77,466.24c-6.31-1.24-40.16-9.73-42.84-14.38-5.32-9.21,2.14-21.43,6.81-24.79,4.28-3.09,33.33-22.47,50-23.66,0,0-26,28.95-14,62.83"/></g><path class="cls-25" d="M671.57,455c-5.9,7.32-12.1,14.68-18.52,21.78-15.73-6.92-70.95-34.5-106.45-94.18,1-1.75,2.14-3.57,3.28-5.44C592.67,424.92,658.39,450.26,671.57,455Z"/><path class="cls-26" d="M541.12,365.61c46.46,60.46,132.79,89.2,132.79,89.2l21.93-28.44"/></g><g id="HEAD"><g id="NECK"><path class="cls-20" d="M881.5,223.18c-48.57-25.63-52.94-101.85-52.94-101.85L722.9,163.18l27.63,64.3s17.91,12.79,76.4,11.82S881.5,223.18,881.5,223.18Z"/><path class="cls-25" d="M787.11,137.75c-5.19,13.22-11.23,13.61-11.23,13.61S773.47,200.71,743,209a2.09,2.09,0,0,1-.34.08L722.9,163.18Z"/><path class="cls-26" d="M749.49,230.59s18.94,11.81,77.44,11.81c54.62,0,53.53-16.12,53.53-16.12"/></g><path id="HEAD-2" data-name="HEAD" class="cls-20" d="M785.1,145s-18.61,29-37.22,35.78c-20.52,7.51-55.25,5.43-64.31-19.93C676,139.69,705,110,711.6,50.27c5.16-46.55,81.52,8.91,77.51,51.81Z"/><g id="HAIR"><path class="cls-3" d="M724,14.42S701.29,8.71,690.53,23c-10,13.31-8.21,49.18,39.62,56,29.31,4.17,10.54,38.57,18.81,42.36s20.45-29.22,28.23-3.07c5.79,19.45,5.74,32.22,28.45,39.3s28.47-4.33,28.47-4.33-7.58-25,15.11-67.42C860.35,65,844.53,32.51,818.36,29.2s-28-17.42-46.75-19.29c-23.69-2.36-36.71,27.35-48.78,24.43S717.28,20.34,724,14.42Z"/><path class="cls-27" d="M682.74,26.94c-10,13.31-4.9,46.25,51.3,51.1"/></g><g id="CAP"><path class="cls-18" d="M719.63,32.66s34.1,98.15,132.91,80.13c0,0,21-55.55.76-78.48-22.68-25.76-64.49-41.57-94.7-31S719.63,32.66,719.63,32.66Z"/><path class="cls-28" d="M851.5,113.82s25.59-71.62-15.78-77.44c-16.17-2.28-45.42,16.11-47.8,70.08"/><path class="cls-29" d="M786.89,106.46s35.47,50.93,95,53.86-29.33-47.53-29.33-47.53S828.22,116.81,786.89,106.46Z"/></g></g></g></g></g></g></svg>