<svg xmlns="http://www.w3.org/2000/svg" viewBox="0 0 1096.88 1235.56"><defs><style>.cls-1,.cls-15,.cls-5{fill:#fff;}.cls-1{stroke:#fe7523;stroke-width:5px;}.cls-1,.cls-17,.cls-2,.cls-21,.cls-23,.cls-3,.cls-4,.cls-5,.cls-6,.cls-7,.cls-9{stroke-miterlimit:10;}.cls-17,.cls-2,.cls-21,.cls-23,.cls-3,.cls-6,.cls-7,.cls-9{fill:none;}.cls-2,.cls-3,.cls-7,.cls-9{stroke:#3f4d79;}.cls-2,.cls-3,.cls-4,.cls-5{stroke-width:6px;}.cls-23,.cls-3,.cls-9{stroke-linecap:round;}.cls-4{fill:#84d7ec;}.cls-4,.cls-5,.cls-6{stroke:#3cbfd4;}.cls-21,.cls-23,.cls-6{stroke-width:3px;}.cls-17,.cls-7{stroke-width:4px;}.cls-8{fill:#ffb000;}.cls-9{stroke-width:7px;}.cls-10{fill:#c36f0b;}.cls-11{fill:#30456d;}.cls-12{fill:#485784;}.cls-13{fill:#3f4d79;}.cls-14{fill:#4e628c;}.cls-16{fill:#daf3f9;}.cls-17{stroke:#aee5f2;}.cls-18{fill:#aee5f2;}.cls-19{fill:#fab6ad;}.cls-20{fill:#3cbfd4;}.cls-21{stroke:#fff;}.cls-22{fill:#ffcfc9;}.cls-23{stroke:#fab6ad;}</style></defs><g id="Layer_2" data-name="Layer 2"><g id="Слой_1" data-name="Слой 1"><g id="_3" data-name="3"><g id="CHAIR"><rect class="cls-1" x="161.03" y="740.71" width="362.76" height="60.13" rx="12.7"/><path class="cls-2" d="M172.27,1232.06l40.4-420.4c.94-8.43,13.32-8.33,14.13.11l44.75,420.29"/><path class="cls-2" d="M403.27,1232.06l40.4-420.4c.94-8.43,13.32-8.33,14.13.11l44.75,420.29"/><line class="cls-3" x1="411.29" y1="1178.42" x2="495.65" y2="1178.42"/><line class="cls-3" x1="262.67" y1="1178.42" x2="177.6" y2="1178.42"/></g><g id="MICROPHONE"><path class="cls-4" d="M694.39,170.24h16.33a14.43,14.43,0,0,1,14.43,14.43v58.17a0,0,0,0,1,0,0H680a0,0,0,0,1,0,0V184.66A14.43,14.43,0,0,1,694.39,170.24Z" transform="translate(173.41 -299.67) rotate(27.35)"/><path class="cls-5" d="M651.58,235.93h45.19a0,0,0,0,1,0,0V275a11.88,11.88,0,0,1-11.88,11.88H663.46A11.88,11.88,0,0,1,651.58,275V235.93a0,0,0,0,1,0,0Z" transform="translate(195.45 -280.5) rotate(27.35)"/><line class="cls-6" x1="658.04" y1="243.42" x2="678.92" y2="236.48"/><line class="cls-6" x1="653.22" y1="252.74" x2="689.53" y2="240.67"/><line class="cls-6" x1="649.81" y1="262.09" x2="699.61" y2="245.88"/><line class="cls-6" x1="647.96" y1="271.57" x2="700.92" y2="254.33"/><line class="cls-6" x1="652.42" y1="279" x2="696.87" y2="264.53"/><line class="cls-6" x1="662.5" y1="284.21" x2="692.94" y2="274.3"/><line class="cls-2" x1="1095.82" y1="65" x2="641.29" y2="237.47"/><line class="cls-2" x1="938.46" y1="122.19" x2="938.46" y2="1218.08"/><line class="cls-2" x1="938.46" y1="1013.27" x2="1049.46" y2="1218.08"/><line class="cls-2" x1="937.46" y1="1013.27" x2="836.46" y2="1218.08"/><path class="cls-7" d="M1063.68,76.82c-.64,9.91-39.84,127.85-197.67,80.37-142.38-42.83-168.77,61.32-168.77,61.32"/><path class="cls-7" d="M1019.26,94.05c-28.12,10.67-167.33,63.5-80.8,380.6,82.67,303,20.07,448-1,535.16"/></g><g id="MAN"><g id="LEGS"><g id="RIGHT_LEG" data-name="RIGHT LEG"><g id="FOOT"><path class="cls-8" d="M941.11,1227.43c-10.35,6.37-88.65,6-100.6,0s-14.15-16.28-16.14-29.82-29-10.1-30.88-18.8c-3.88-18,19.09-51.84,24.41-59.62-4.38,12.92,46.47,10.75,50,2.38,4.61,21.1,39.07,61.24,59.29,68.8C938.39,1194.57,951.46,1221.06,941.11,1227.43Z"/><path class="cls-9" d="M793.49,1183.81s22.61,3.3,28.88,14.81c6.55,12,6.2,22.84,18.14,28.81s93.25,6.37,103.6,0"/><path class="cls-9" d="M868.34,1175.33a49.52,49.52,0,0,1,37.9-2"/><path class="cls-9" d="M859.34,1159.33s10.95-10.38,31.9-3"/><path class="cls-10" d="M855.34,1064l12.54,57.53c-3.51,8.37-41.5,14-49,2.62-10.9-16.62-34.29-59.37-34.29-59.37Z"/></g><g id="LEG"><path class="cls-11" d="M748.44,687.31c-14.37-39-300.59-92-300.59-92L313.56,626.39c-4.94,13.75-13.85,99.74,58.62,133.39,76.91,35.71,254,1.35,254,1.35S606.66,884.56,781.53,1065h77C842.32,962.67,768.86,742.75,748.44,687.31Z"/><path class="cls-12" d="M770,1053.74S769,1073,788,1076c7.1,1.11,70.61-3,74.39-6s-3-21.25-3-21.25S824.1,1059.37,770,1053.74Z"/></g></g><g id="LEFT_LEG" data-name="LEFT LEG"><g id="FOOT-2" data-name="FOOT"><path class="cls-8" d="M607.11,1227.43c-10.35,6.37-83.65,6-95.6,0s-9.15-16.28-11.14-29.82-25.26-29-26.85-37.77c0,0,7.61-31.23,32.38-45.65-4.38,12.92,42.47,15.75,46,7.38,4.86,28.27,24.81,69.4,43.29,73.8C606.82,1198.15,617.46,1221.06,607.11,1227.43Z"/><path class="cls-9" d="M473.52,1160.84s21.47,28.92,24.85,37.78c4.87,12.78,1.2,22.84,13.14,28.81s88.25,6.37,98.6,0"/><path class="cls-9" d="M539.34,1175.33s13.95-11.38,34.9-4"/><path class="cls-9" d="M530.34,1159.33s13.95-11.38,34.9-4"/><path class="cls-10" d="M561.34,1064l-9.46,57.53c-3.51,8.37-44.52,11.19-46-2.38-1.54-14.3-6.29-54.37-6.29-54.37Z"/></g><g id="LEG-2" data-name="LEG"><path class="cls-13" d="M625.18,707.46c-19.11-70.85-253-90.32-253-90.32L166,617.39c-4.94,13.75-13.85,108.74,58.62,142.39,76.9,35.71,237,15.7,237,15.7S428.27,936.77,494.82,1065h89.33C567.92,962.67,640.56,764.5,625.18,707.46Z"/><path class="cls-14" d="M486,1048.74S481,1073,500,1076c7.1,1.11,79.61-2,83.39-5s1-25.25,1-25.25S540.1,1054.37,486,1048.74Z"/></g></g></g><g id="SHIRT"><path class="cls-15" d="M447.88,594.48s-13.42,25.38-101.33,24.25c10.7-62.65,29.25-174.35,28.87-212.49-.55-53.54-.86-177.53-14.62-200.83l-.63-.83,51.76-4.47c.88,4.6,1.75,7.9,1.75,7.9s42.14,95.35,27.64,201.62C423.32,541.57,447.88,594.48,447.88,594.48Z"/><path class="cls-16" d="M312.85,142.61c-11,1.91-148.39,42.75-170.18,51.81C94.54,214.43,38.32,359.48,3.85,432.74l126.69-6.49s45-75.55,48.21-75.55,7.41,142.05-2.32,171.25-43.8,81.11-46.51,100c0,0,54.08,40,209.27,41.63,0,0,36.77-203.85,36.23-257.39s-.86-177.52-14.62-200.82Z"/><path class="cls-16" d="M415.52,172.68c3.87-.6,11.81,15.37,63.18,31.59S603.07,420.58,603.07,420.58L495.75,451.72S482.48,499.62,522,610.47c0,0-61.65-7.31-74.08-13.26,0,0-24.56-55.64-6.56-187.58C455.82,303.36,413.68,208,413.68,208S404.79,174.34,415.52,172.68Z"/><path class="cls-17" d="M494.92,287.54s19.49,56.79,0,163"/><path class="cls-18" d="M327.46,137.37s-2.87-17,1.45-23,43.38-.86,43.38-.86S346.55,131.29,327.46,137.37Z"/><path class="cls-15" d="M434.54,217.16l-22.62-19.81s-1.79-32.92,3.6-24.67c6.67,10.21,27.28,17.2,27.28,17.2Z"/><line class="cls-17" x1="433.5" y1="217.16" x2="410.88" y2="197.35"/><path class="cls-15" d="M328.91,114.36c-5.4,6.37-3.24,54.55,31.07,90.23l-32.14,18.88S269.49,155.94,277,149.84C301.34,130.05,328.91,114.36,328.91,114.36Z"/><line class="cls-17" x1="359.98" y1="205.63" x2="327.84" y2="224.5"/></g><g id="RIGHT_HAND" data-name="RIGHT HAND"><path class="cls-18" d="M521.75,494.87S468,476,499.67,424.37c22.46-36.57,95.63-36.65,106.84-4.44C615,444.39,591.54,497.62,521.75,494.87Z"/><path class="cls-19" d="M548.92,436.29c-27.31,7.38-49.51,43.77-34.86,55,26.43,20.21,84.49,26,175.46-24.19C717.67,451.53,669.66,420,669.66,420Z"/></g><g id="GUITAR"><path class="cls-5" d="M311.79,695.26c-81,25.86-168.13-20.65-194.71-103.87s17.48-171.66,98.43-197.52a150.35,150.35,0,0,1,96.16,1.54c35.9,12.64,74.73,5.32,103.94-18.27a114.69,114.69,0,0,1,37.2-20c61.92-19.78,119.51,18.7,139.84,82.35s-4.28,128.38-66.2,148.16a114.59,114.59,0,0,1-41.92,5.26c-37.47-2.29-73.37,14.26-95.28,45.37A150.38,150.38,0,0,1,311.79,695.26Z"/><circle class="cls-20" cx="371.65" cy="506.4" r="47.63"/><rect class="cls-20" x="279.44" y="497.5" width="19.41" height="86.93" rx="4.66" transform="translate(-172.16 136.68) rotate(-20.64)"/><path class="cls-8" d="M798.35,363.27l-349.93,152c-5.52,2.48-13.62,3.26-16.71-4.95l-16.85-44.7c-3.09-8.21,1.93-11,7.71-12.75L787.4,334.21Z"/><path class="cls-21" d="M270.74,534.66c-3.09-8.2,1-17.24,9-19.86L788,341.37"/><path class="cls-21" d="M276.64,550.32c-3.1-8.21,1-17.25,9-19.87l504.7-182.64"/><path class="cls-21" d="M278.31,554.76c3.09,8.21,12.15,12.28,19.91,9l496.26-205"/><path class="cls-21" d="M272.07,538.19c3.09,8.21,12.14,12.28,19.9,9L792.06,352.27"/><path class="cls-5" d="M919.87,318.14l-118.46,59a7.61,7.61,0,0,1-10.89-5.52l-7.94-46.33a7.61,7.61,0,0,1,5.88-8.71l85.19-18.56a22.61,22.61,0,0,1,12.41.8l33.38,11.93A4,4,0,0,1,919.87,318.14Z"/><ellipse class="cls-1" cx="805.91" cy="300.22" rx="8.38" ry="3.44" transform="translate(-44.84 426.08) rotate(-28.85)"/><ellipse class="cls-1" cx="835.22" cy="293.53" rx="8.38" ry="3.44" transform="translate(-26.94 494.6) rotate(-32.49)"/><ellipse class="cls-1" cx="863.42" cy="286.87" rx="8.38" ry="3.44" transform="translate(-18.95 508.71) rotate(-32.49)"/><ellipse class="cls-1" cx="829.99" cy="376.34" rx="8.38" ry="3.44" transform="matrix(0.84, -0.54, 0.54, 0.84, -72.25, 504.75)"/><ellipse class="cls-1" cx="859.26" cy="361.6" rx="8.38" ry="3.44" transform="translate(-59.74 518.17) rotate(-32.49)"/><ellipse class="cls-1" cx="891.79" cy="345.38" rx="8.38" ry="3.44" transform="translate(-45.94 533.1) rotate(-32.49)"/></g><g id="RIGHT_ARM" data-name="RIGHT ARM"><path class="cls-22" d="M689.52,467.07c9.76-5,38.75-42.73,41.22-52.83s3.07-49.66,1.88-52.91-13.12-11.85-13.12-11.85-11.27-4.56-20.66-5.15c0,0-2.84,9.08,6.61,15,0,0,3.89,24.76.61,27-4.15,2.84-7.43-13.55-10.56-21.68-2-5-15.8,1.62-15.94,4.93a19.58,19.58,0,0,0,.33,5.15s-8.21,3.41-10.3,7.22-8,49.46-.8,63.35S689.52,467.07,689.52,467.07Z"/><path class="cls-23" d="M679.27,377.12c.19,2.62,2.77,14.15,2.77,14.15"/><path class="cls-23" d="M717.49,350.81c4.67,2,6.14,29.58,6.14,29.58"/></g><g id="LEFT_HAND" data-name="LEFT HAND"><path class="cls-18" d="M135.18,417.87C103,413.78,71.26,419.6,42.61,445c-4.42,3.92-24.89,28.46-12.16,48.51-.5.84-1,1.68-1.46,2.54,0,0-50.61-36.25-18.08-79.5,25.8-34.3,95.53-28.09,115.84-13.44C133,407.57,134.71,414.44,135.18,417.87Z"/><path class="cls-22" d="M42.6,445c-7,6.17-53.73,63.53,52.13,73.87S307.42,520,312.09,522s37.89,20.19,49.67,18.49,49.74-11,51-15.59,14.75-50.68,14.75-50.68-12.22-4-19.72,9.17c-8.49,14.89-38.53,22.13-48.87,14.89s17.22-9.05,23.12-13.73,6.37-7.64,6.37-7.64-21.25-4.41-29-7.11-42.62,15.36-45.48,14.78C244.54,470.62,129.37,368.15,42.6,445Z"/></g><g id="HEAD"><g id="NECK"><path class="cls-22" d="M327.85,137.61c56.47-21.08,75.48-57.82,75.48-57.82l15.91,88.83s-10.72,6.11-7.1,31.47c3.22,22.54-34.81,21.25-56.24.45C331.21,176.57,327.85,137.61,327.85,137.61Z"/><path class="cls-19" d="M419.24,168.62s-10.72,6.11-7.1,31.47a10.23,10.23,0,0,1-1.72,7.92c-17-8.93-35.63-32.61-31.88-67,1.85-16.91,24.52-35.47,29.06-39.17Z"/></g><path id="HEAD-2" data-name="HEAD" class="cls-22" d="M402.58,102.89c-4.53,3.7-18.19,21.69-14.12,32.56,6.77,18,42,58.54,56,53.61,6-2.11,41.43-32.52,53-50.78,4.32-6.79,24.39-51.22,14-59.72C498.9,68.29,453.87,61,402.58,102.89Z"/><g id="HAT"><path class="cls-13" d="M371.29,113.5c6.11,3.71,23.92-6.08,52-18.49,44.11-19.47,103-37.76,90.33,5.06,0,0,7.93-14,7.94-30,0-19.19-14.69-31.16-25-46.4C483.86,4.88,471.84-3.3,422.16,1.22S348.38,22,353.58,44.14s23.21,33.72,23.21,33.72S359.74,106.52,371.29,113.5Z"/><path class="cls-21" d="M375.86,76.82c7.41-13.63,14.92-20.41,14.92-20.41"/></g></g></g></g></g></g></svg>